<?xml version="1.0" encoding="UTF-8" standalone="yes" ?>
<svg xmlns="http://www.w3.org/2000/svg" height="452" width="452">
  <script type="text/ecmascript">
    <![CDATA[
      var shown = 1;
      function click() {
        var seq = document.getElementById("seq");
        if (shown==1) {
          seq.setAttribute("style", "visibility: hidden");
          shown = 0;
        } else {
          seq.setAttribute("style", "visibility: visible");
          shown = 1;
        }
      }
    ]]>
  </script>
  <style type="text/css">
    <![CDATA[
      .nucleotide {
        font-family: SansSerif;
      }
      .backbone {
        stroke: grey;
        fill:   none;
        stroke-width: 1.5;
      }
      .basepairs {
        stroke: red;
        fill:   none;
        stroke-width: 2.5;
      }
    ]]>
  </style>

  <rect style="stroke: white; fill: white" height="452" x="0" y="0" width="452" onclick="click(evt)" />
  <g transform="scale(0.293020,0.293020) translate(869.748047,856.985352)">
    <polyline class="backbone" id="outline" points="
      -67.643,-426.544
      -71.605,-434.655
      -78.543,-436.964
      -83.212,-452.081
      -97.766,-455.244
      -108.637,-465.580
      -115.767,-478.777
      -118.454,-493.535
      -111.794,-504.500
      -114.266,-516.682
      -124.027,-523.715
      -126.793,-538.458
      -129.558,-553.201
      -132.324,-567.944
      -135.089,-582.686
      -129.141,-597.969
      -139.611,-610.590
      -155.729,-607.567
      -160.914,-592.009
      -149.832,-579.921
      -147.067,-565.178
      -144.301,-550.435
      -141.536,-535.692
      -138.770,-520.950
      -145.447,-504.673
      -133.211,-490.847
      -130.524,-476.090
      -143.304,-468.237
      -155.255,-477.303
      -167.205,-486.368
      -179.156,-495.434
      -191.106,-504.500
      -197.425,-519.005
      -212.241,-520.532
      -224.143,-529.661
      -235.997,-538.853
      -247.851,-548.044
      -248.570,-558.765
      -254.893,-567.181
      -264.580,-570.708
      -274.408,-568.425
      -286.359,-577.491
      -298.309,-586.556
      -303.188,-594.152
      -310.347,-595.638
      -313.216,-601.408
      -317.844,-604.475
      -322.521,-604.671
      -327.519,-612.188
      -334.702,-613.560
      -346.841,-622.371
      -358.958,-631.213
      -363.957,-638.730
      -371.139,-640.103
      -383.279,-648.913
      -395.419,-657.723
      -407.559,-666.534
      -412.597,-674.024
      -419.786,-675.358
      -431.949,-684.136
      -442.792,-694.502
      -444.694,-710.790
      -459.856,-717.038
      -472.681,-706.818
      -469.976,-690.644
      -454.523,-685.154
      -464.715,-674.148
      -467.855,-679.774
      -472.624,-682.618
      -477.305,-682.590
      -477.490,-716.390
      -489.723,-725.071
      -501.955,-733.752
      -514.188,-742.434
      -526.420,-751.115
      -538.630,-759.828
      -550.816,-768.574
      -552.392,-772.371
      -554.813,-775.231
      -557.702,-777.008
      -560.668,-777.685
      -563.355,-777.373
      -575.724,-785.859
      -580.959,-793.214
      -588.181,-794.357
      -600.595,-802.777
      -613.009,-811.197
      -625.423,-819.617
      -637.836,-828.037
      -642.257,-843.459
      -657.125,-849.485
      -671.035,-841.493
      -673.317,-825.613
      -662.220,-814.027
      -646.256,-815.623
      -633.843,-807.203
      -621.429,-798.783
      -609.015,-790.363
      -596.601,-781.943
      -584.210,-773.490
      -571.841,-765.004
      -559.562,-756.388
      -547.376,-747.642
      -543.811,-741.258
      -535.102,-738.882
      -522.869,-730.201
      -510.637,-721.520
      -498.404,-712.839
      -486.171,-704.157
      -493.336,-690.979
      -503.069,-704.178
      -519.334,-702.079
      -525.398,-686.843
      -515.024,-674.142
      -498.883,-677.043
      -485.593,-670.088
      -473.135,-661.734
      -440.760,-671.997
      -437.229,-665.594
      -428.532,-663.172
      -416.369,-654.394
      -404.229,-645.583
      -392.089,-636.773
      -379.949,-627.963
      -367.833,-619.120
      -364.335,-612.699
      -355.652,-610.231
      -343.512,-601.421
      -331.395,-592.578
      -319.349,-583.640
      -307.375,-574.606
      -295.424,-565.540
      -283.474,-556.474
      -277.174,-538.131
      -257.042,-536.191
      -245.188,-526.999
      -233.335,-517.807
      -231.862,-513.363
      -227.642,-509.756
      -221.306,-508.582
      -215.843,-494.725
      -200.172,-492.549
      -188.221,-483.484
      -176.271,-474.418
      -164.320,-465.352
      -152.370,-456.287
      -118.973,-454.710
      -108.103,-444.374
      -104.211,-429.996
      -88.879,-426.094
      -78.036,-415.729
      -67.249,-405.306
      -56.489,-394.855
      -55.519,-390.276
      -51.725,-386.222
      -45.559,-384.352
      -42.904,-377.538
      -34.604,-373.989
      -23.679,-363.711
      -12.754,-353.432
      -12.253,-350.041
      -10.146,-346.708
      -6.469,-344.159
      -1.573,-343.079
      9.513,-332.975
      20.600,-322.871
      31.687,-312.768
      34.485,-306.012
      42.859,-302.640
      45.693,-295.899
      54.085,-292.571
      65.278,-282.586
      68.148,-275.861
      76.557,-272.577
      96.089,-256.143
      100.777,-241.895
      105.465,-227.646
      104.516,-221.273
      106.556,-216.109
      110.279,-213.272
      115.118,-199.074
      119.957,-184.876
      124.796,-170.678
      129.635,-156.480
      134.398,-142.256
      134.100,-133.234
      139.149,-127.945
      143.913,-113.721
      136.677,-97.547
      146.680,-81.205
      137.562,-82.311
      127.504,-78.893
      118.963,-75.969
      115.811,-69.372
      107.286,-66.402
      104.169,-59.788
      92.613,-50.224
      81.032,-40.691
      69.401,-31.219
      57.744,-21.778
      46.088,-12.338
      34.432,-2.897
      22.775,6.544
      11.119,15.985
      -0.587,25.364
      -12.392,34.618
      -24.246,43.810
      -36.100,53.002
      -52.412,54.688
      -58.860,69.766
      -48.811,82.725
      -32.603,80.234
      -26.908,64.856
      -15.054,55.664
      -3.201,46.472
      1.470,46.153
      6.015,42.963
      8.729,37.120
      13.396,36.751
      17.907,33.514
      20.560,27.641
      32.216,18.201
      43.872,8.760
      55.529,-0.681
      67.185,-10.122
      78.841,-19.563
      85.941,-21.313
      90.534,-29.085
      97.624,-30.873
      102.177,-38.668
      113.732,-48.232
      125.313,-57.765
      136.945,-67.237
      151.452,-63.425
      156.962,-49.474
      154.835,-33.796
      166.707,-24.801
      172.217,-10.850
      170.749,4.078
      162.627,16.689
      147.804,23.705
      146.738,40.069
      160.525,48.948
      174.983,41.208
      175.238,24.811
      183.360,12.200
      198.316,13.351
      204.376,27.073
      210.399,40.810
      216.423,54.548
      196.584,95.322
      195.523,104.287
      200.106,109.984
      199.093,118.955
      203.706,124.628
      207.325,139.184
      210.945,153.741
      214.564,168.298
      213.598,177.274
      218.242,182.922
      201.501,212.121
      203.836,226.938
      206.131,241.761
      208.427,256.584
      206.658,265.437
      210.774,271.480
      213.148,286.291
      211.426,295.153
      215.574,301.174
      218.026,315.972
      220.479,330.770
      220.359,345.770
      217.672,360.527
      214.985,375.285
      212.298,390.042
      209.610,404.799
      206.923,419.557
      195.905,431.703
      201.172,447.233
      217.306,450.171
      227.709,437.494
      221.680,422.244
      224.368,407.486
      227.055,392.729
      229.742,377.972
      232.430,363.214
      235.117,348.457
      250.109,347.980
      253.651,362.556
      252.591,371.521
      257.174,377.219
      251.613,394.823
      264.328,406.982
      267.793,421.576
      266.732,430.541
      271.315,436.239
      274.858,450.814
      273.844,459.785
      278.458,465.458
      277.038,471.743
      278.690,477.044
      282.193,480.149
      275.392,500.538
      290.804,514.343
      289.791,523.313
      294.404,528.987
      298.024,543.543
      301.643,558.100
      300.677,567.076
      305.320,572.724
      308.940,587.281
      312.482,601.857
      316.024,616.433
      319.489,631.027
      322.877,645.639
      315.642,659.959
      322.457,674.482
      338.094,678.069
      350.557,667.968
      350.287,651.927
      337.489,642.252
      334.102,627.639
      335.766,623.264
      334.771,617.801
      330.600,612.891
      327.058,598.315
      323.516,583.739
      325.133,579.346
      324.081,573.894
      319.858,569.028
      316.200,554.481
      312.580,539.924
      308.961,525.367
      305.380,510.801
      311.062,504.216
      313.167,495.637
      311.115,486.905
      305.234,479.953
      296.711,476.376
      293.014,461.838
      289.433,447.272
      285.891,432.696
      282.388,418.111
      278.923,403.517
      284.983,393.124
      282.291,380.989
      271.749,373.676
      268.246,359.091
      269.887,354.707
      268.863,349.250
      264.666,344.361
      250.840,328.809
      235.277,328.318
      232.824,313.520
      230.372,298.722
      227.959,283.917
      225.585,269.106
      223.250,254.289
      220.955,239.466
      218.659,224.642
      220.718,217.626
      216.312,209.747
      229.657,202.898
      240.278,213.490
      250.870,224.111
      254.660,232.305
      261.547,234.760
      272.168,245.352
      275.866,261.329
      291.628,265.855
      303.240,254.274
      298.755,238.500
      282.789,234.760
      280.315,227.879
      272.112,224.111
      261.491,213.518
      250.898,202.898
      248.425,196.017
      240.222,192.249
      232.779,179.226
      229.121,164.679
      225.502,150.122
      221.882,135.565
      218.263,121.008
      214.682,106.442
      211.178,91.857
      222.785,82.354
      234.391,72.852
      248.014,79.129
      261.621,85.442
      275.211,91.792
      288.767,98.213
      302.289,104.706
      315.811,111.199
      322.110,117.665
      329.422,117.690
      342.961,124.147
      356.483,130.640
      370.004,137.133
      383.526,143.626
      392.328,157.463
      408.698,156.489
      415.797,141.706
      406.321,128.321
      390.019,130.104
      376.497,123.611
      362.975,117.118
      349.454,110.625
      344.832,104.958
      335.843,104.134
      322.304,97.677
      308.782,91.184
      295.260,84.691
      292.886,80.656
      288.001,78.017
      281.560,78.202
      267.970,71.852
      263.289,66.235
      254.291,65.506
      240.668,59.229
      230.160,48.524
      224.137,34.787
      218.113,21.049
      218.302,13.740
      212.021,7.255
      186.168,-16.360
      180.658,-30.311
      183.179,-44.991
      170.914,-54.984
      165.404,-68.935
      161.515,-83.422
      171.079,-94.978
      186.067,-95.574
      201.055,-96.170
      216.043,-96.766
      231.033,-97.322
      246.024,-97.838
      261.024,-97.759
      274.543,-88.477
      289.223,-95.788
      289.961,-112.170
      275.999,-120.772
      261.699,-112.743
      261.540,-127.743
      276.507,-128.735
      291.477,-129.688
      306.451,-130.562
      319.319,-120.981
      334.796,-125.207
      341.009,-139.998
      333.192,-154.008
      317.342,-156.489
      305.617,-145.539
      298.836,-148.274
      290.564,-144.660
      283.768,-147.360
      275.515,-143.702
      260.547,-142.710
      245.508,-112.829
      230.516,-112.313
      223.795,-115.191
      215.447,-111.754
      200.459,-111.158
      185.471,-110.562
      170.483,-109.966
      158.136,-118.485
      153.373,-132.708
      148.647,-146.944
      149.911,-151.452
      148.429,-156.803
      143.833,-161.318
      138.994,-175.517
      134.155,-189.715
      129.316,-203.913
      124.478,-218.111
      119.714,-232.334
      115.026,-246.583
      110.338,-260.831
      113.064,-275.582
      122.536,-287.213
      128.415,-289.850
      131.664,-294.352
      132.045,-299.018
      141.393,-310.749
      150.741,-322.480
      160.089,-334.211
      169.468,-345.917
      178.909,-357.574
      188.381,-369.205
      196.140,-373.819
      197.871,-380.923
      207.281,-392.604
      216.691,-404.286
      226.132,-415.942
      233.891,-420.556
      235.623,-427.660
      243.358,-432.315
      245.052,-439.428
      278.624,-437.712
      286.595,-441.951
      288.663,-448.964
      298.619,-460.184
      308.575,-471.403
      318.531,-482.623
      328.487,-493.842
      338.473,-505.035
      348.576,-516.122
      358.797,-527.101
      369.047,-538.053
      379.296,-549.005
      389.575,-559.930
      399.911,-570.800
      410.305,-581.615
      420.727,-592.403
      431.150,-603.190
      441.572,-613.978
      449.694,-617.919
      452.021,-624.851
      467.963,-626.648
      476.375,-640.308
      470.805,-655.353
      455.524,-660.241
      442.256,-651.222
      441.178,-635.216
      430.785,-624.400
      420.362,-613.613
      409.940,-602.825
      399.517,-592.037
      392.683,-589.437
      389.069,-581.165
      382.248,-578.528
      378.677,-570.237
      371.871,-567.565
      368.344,-559.255
      358.095,-548.303
      347.845,-537.351
      341.053,-534.642
      337.570,-526.314
      334.183,-525.786
      330.867,-523.652
      328.347,-519.955
      327.306,-515.051
      320.573,-512.199
      317.267,-503.798
      307.311,-492.579
      297.355,-481.359
      287.399,-470.140
      277.443,-458.920
      267.458,-447.727
      254.804,-455.782
      260.682,-469.582
      266.858,-476.166
      266.554,-483.471
      279.930,-492.958
      278.134,-509.258
      263.012,-515.604
      250.121,-505.468
      252.722,-489.276
      246.881,-475.460
      241.003,-461.659
      233.321,-448.776
      223.942,-437.070
      214.501,-425.414
      207.912,-422.244
      205.010,-413.696
      195.600,-402.014
      186.190,-390.333
      176.749,-378.677
      167.278,-367.045
      160.688,-363.876
      157.787,-355.327
      151.214,-352.123
      148.358,-343.559
      139.010,-331.828
      129.662,-320.097
      120.314,-308.366
      110.905,-296.685
      101.433,-285.053
      86.483,-283.823
      75.264,-293.779
      64.071,-303.765
      52.904,-313.780
      41.791,-323.854
      30.704,-333.958
      19.617,-344.062
      8.530,-354.165
      -2.476,-364.357
      -13.400,-374.635
      -24.325,-384.914
      -35.223,-395.222
      -46.038,-405.615
      -56.798,-416.066
    " />
    <g id="pairs">
      <line class="basepairs" id="1,151" x1="-67.64252" y1="-426.54401" x2="-78.03632" y2="-415.72876" />
      <line class="basepairs" id="3,150" x1="-78.54267" y1="-436.96402" x2="-88.87904" y2="-426.09390" />
      <line class="basepairs" id="5,148" x1="-97.76645" y1="-455.24384" x2="-108.10281" y2="-444.37372" />
      <line class="basepairs" id="6,147" x1="-108.63657" y1="-465.58020" x2="-118.97294" y2="-454.71008" />
      <line class="basepairs" id="7,27" x1="-115.76659" y1="-478.77728" x2="-130.52391" y2="-476.09000" />
      <line class="basepairs" id="8,26" x1="-118.45388" y1="-493.53461" x2="-133.21120" y2="-490.84732" />
      <line class="basepairs" id="11,24" x1="-124.02737" y1="-523.71497" x2="-138.77025" y2="-520.94952" />
      <line class="basepairs" id="12,23" x1="-126.79280" y1="-538.45782" x2="-141.53568" y2="-535.69238" />
      <line class="basepairs" id="13,22" x1="-129.55823" y1="-553.20068" x2="-144.30112" y2="-550.43530" />
      <line class="basepairs" id="14,21" x1="-132.32367" y1="-567.94360" x2="-147.06654" y2="-565.17810" />
      <line class="basepairs" id="15,20" x1="-135.08910" y1="-582.68640" x2="-149.83197" y2="-579.92102" />
      <line class="basepairs" id="28,146" x1="-143.30415" y1="-468.23727" x2="-152.36977" y2="-456.28677" />
      <line class="basepairs" id="29,145" x1="-155.25467" y1="-477.30289" x2="-164.32028" y2="-465.35239" />
      <line class="basepairs" id="30,144" x1="-167.20518" y1="-486.36850" x2="-176.27080" y2="-474.41800" />
      <line class="basepairs" id="31,143" x1="-179.15569" y1="-495.43411" x2="-188.22130" y2="-483.48361" />
      <line class="basepairs" id="32,142" x1="-191.10620" y1="-504.49973" x2="-200.17181" y2="-492.54919" />
      <line class="basepairs" id="34,140" x1="-212.24063" y1="-520.53223" x2="-221.30624" y2="-508.58170" />
      <line class="basepairs" id="35,137" x1="-224.14294" y1="-529.66101" x2="-233.33467" y2="-517.80725" />
      <line class="basepairs" id="36,136" x1="-235.99673" y1="-538.85272" x2="-245.18846" y2="-526.99896" />
      <line class="basepairs" id="37,135" x1="-247.85052" y1="-548.04443" x2="-257.04224" y2="-536.19067" />
      <line class="basepairs" id="41,133" x1="-274.40836" y1="-568.42493" x2="-283.47397" y2="-556.47443" />
      <line class="basepairs" id="42,132" x1="-286.35886" y1="-577.49054" x2="-295.42447" y2="-565.54004" />
      <line class="basepairs" id="43,131" x1="-298.30936" y1="-586.55615" x2="-307.37497" y2="-574.60559" />
      <line class="basepairs" id="45,130" x1="-310.34729" y1="-595.63794" x2="-319.34946" y2="-583.63953" />
      <line class="basepairs" id="48,129" x1="-322.52081" y1="-604.67114" x2="-331.39536" y2="-592.57800" />
      <line class="basepairs" id="50,128" x1="-334.70154" y1="-613.56042" x2="-343.51190" y2="-601.42053" />
      <line class="basepairs" id="51,127" x1="-346.84146" y1="-622.37079" x2="-355.65182" y2="-610.23083" />
      <line class="basepairs" id="52,125" x1="-358.95801" y1="-631.21326" x2="-367.83255" y2="-619.12018" />
      <line class="basepairs" id="54,124" x1="-371.13876" y1="-640.10254" x2="-379.94910" y2="-627.96265" />
      <line class="basepairs" id="55,123" x1="-383.27869" y1="-648.91296" x2="-392.08902" y2="-636.77301" />
      <line class="basepairs" id="56,122" x1="-395.41861" y1="-657.72327" x2="-404.22894" y2="-645.58337" />
      <line class="basepairs" id="57,121" x1="-407.55853" y1="-666.53363" x2="-416.36887" y2="-654.39368" />
      <line class="basepairs" id="59,120" x1="-419.78619" y1="-675.35828" x2="-428.53210" y2="-663.17188" />
      <line class="basepairs" id="60,118" x1="-431.94940" y1="-684.13647" x2="-440.75974" y2="-671.99652" />
      <line class="basepairs" id="61,66" x1="-442.79211" y1="-694.50159" x2="-454.52313" y2="-685.15369" />
      <line class="basepairs" id="67,117" x1="-464.71460" y1="-674.14758" x2="-473.13467" y2="-661.73376" />
      <line class="basepairs" id="70,116" x1="-477.30484" y1="-682.59033" x2="-485.59293" y2="-670.08801" />
      <line class="basepairs" id="71,109" x1="-477.49011" y1="-716.39001" x2="-486.17133" y2="-704.15741" />
      <line class="basepairs" id="72,108" x1="-489.72272" y1="-725.07123" x2="-498.40393" y2="-712.83862" />
      <line class="basepairs" id="73,107" x1="-501.95529" y1="-733.75244" x2="-510.63654" y2="-721.51990" />
      <line class="basepairs" id="74,106" x1="-514.18787" y1="-742.43372" x2="-522.86914" y2="-730.20111" />
      <line class="basepairs" id="75,105" x1="-526.42047" y1="-751.11493" x2="-535.10168" y2="-738.88232" />
      <line class="basepairs" id="76,103" x1="-538.63000" y1="-759.82849" x2="-547.37592" y2="-747.64209" />
      <line class="basepairs" id="77,102" x1="-550.81647" y1="-768.57440" x2="-559.56238" y2="-756.38800" />
      <line class="basepairs" id="82,101" x1="-563.35504" y1="-777.37329" x2="-571.84076" y2="-765.00427" />
      <line class="basepairs" id="83,100" x1="-575.72406" y1="-785.85901" x2="-584.20978" y2="-773.48999" />
      <line class="basepairs" id="85,99" x1="-588.18115" y1="-794.35675" x2="-596.60126" y2="-781.94293" />
      <line class="basepairs" id="86,98" x1="-600.59497" y1="-802.77679" x2="-609.01501" y2="-790.36304" />
      <line class="basepairs" id="87,97" x1="-613.00879" y1="-811.19690" x2="-621.42883" y2="-798.78308" />
      <line class="basepairs" id="88,96" x1="-625.42255" y1="-819.61694" x2="-633.84265" y2="-807.20319" />
      <line class="basepairs" id="89,95" x1="-637.83636" y1="-828.03705" x2="-646.25641" y2="-815.62323" />
      <line class="basepairs" id="110,115" x1="-493.33627" y1="-690.97925" x2="-498.88327" y2="-677.04260" />
      <line class="basepairs" id="152,592" x1="-67.24868" y1="-405.30637" x2="-56.79773" y2="-416.06635" />
      <line class="basepairs" id="153,591" x1="-56.48869" y1="-394.85541" x2="-46.03773" y2="-405.61542" />
      <line class="basepairs" id="156,590" x1="-45.55888" y1="-384.35150" x2="-35.22252" y2="-395.22162" />
      <line class="basepairs" id="158,589" x1="-34.60368" y1="-373.98932" x2="-24.32505" y2="-384.91406" />
      <line class="basepairs" id="159,588" x1="-23.67895" y1="-363.71069" x2="-13.40032" y2="-374.63544" />
      <line class="basepairs" id="160,587" x1="-12.75422" y1="-353.43207" x2="-2.47559" y2="-364.35681" />
      <line class="basepairs" id="164,586" x1="-1.57323" y1="-343.07861" x2="8.53048" y2="-354.16534" />
      <line class="basepairs" id="165,585" x1="9.51348" y1="-332.97491" x2="19.61719" y2="-344.06161" />
      <line class="basepairs" id="166,584" x1="20.60019" y1="-322.87122" x2="30.70390" y2="-333.95792" />
      <line class="basepairs" id="167,583" x1="31.68690" y1="-312.76752" x2="41.79061" y2="-323.85419" />
      <line class="basepairs" id="169,582" x1="42.85921" y1="-302.63983" x2="52.90404" y2="-313.77991" />
      <line class="basepairs" id="171,581" x1="54.08501" y1="-292.57147" x2="64.07069" y2="-303.76462" />
      <line class="basepairs" id="172,580" x1="65.27815" y1="-282.58582" x2="75.26382" y2="-293.77893" />
      <line class="basepairs" id="174,579" x1="76.55714" y1="-272.57709" x2="86.48338" y2="-283.82294" />
      <line class="basepairs" id="175,478" x1="96.08921" y1="-256.14334" x2="110.33777" y2="-260.83148" />
      <line class="basepairs" id="176,477" x1="100.77734" y1="-241.89479" x2="115.02589" y2="-246.58292" />
      <line class="basepairs" id="177,476" x1="105.46546" y1="-227.64624" x2="119.71403" y2="-232.33435" />
      <line class="basepairs" id="180,475" x1="110.27949" y1="-213.27200" x2="124.47757" y2="-218.11084" />
      <line class="basepairs" id="181,474" x1="115.11832" y1="-199.07391" x2="129.31641" y2="-203.91275" />
      <line class="basepairs" id="182,473" x1="119.95715" y1="-184.87582" x2="134.15524" y2="-189.71466" />
      <line class="basepairs" id="183,472" x1="124.79598" y1="-170.67773" x2="138.99406" y2="-175.51657" />
      <line class="basepairs" id="184,471" x1="129.63481" y1="-156.47964" x2="143.83290" y2="-161.31848" />
      <line class="basepairs" id="185,468" x1="134.39836" y1="-142.25613" x2="148.64693" y2="-146.94426" />
      <line class="basepairs" id="187,467" x1="139.14925" y1="-127.94461" x2="153.37277" y2="-132.70816" />
      <line class="basepairs" id="188,466" x1="143.91280" y1="-113.72109" x2="158.13632" y2="-118.48463" />
      <line class="basepairs" id="190,431" x1="146.67958" y1="-81.20543" x2="161.51486" y2="-83.42235" />
      <line class="basepairs" id="192,233" x1="127.50381" y1="-78.89337" x2="136.94464" y2="-67.23701" />
      <line class="basepairs" id="194,232" x1="115.81088" y1="-69.37151" x2="125.31334" y2="-57.76534" />
      <line class="basepairs" id="196,231" x1="104.16856" y1="-59.78784" x2="113.73237" y2="-48.23217" />
      <line class="basepairs" id="197,230" x1="92.61289" y1="-50.22403" x2="102.17670" y2="-38.66837" />
      <line class="basepairs" id="198,228" x1="81.03192" y1="-40.69087" x2="90.53438" y2="-29.08469" />
      <line class="basepairs" id="199,226" x1="69.40062" y1="-31.21919" x2="78.84145" y2="-19.56284" />
      <line class="basepairs" id="200,225" x1="57.74426" y1="-21.77835" x2="67.18510" y2="-10.12199" />
      <line class="basepairs" id="201,224" x1="46.08791" y1="-12.33752" x2="55.52874" y2="-0.68117" />
      <line class="basepairs" id="202,223" x1="34.43155" y1="-2.89668" x2="43.87239" y2="8.75967" />
      <line class="basepairs" id="203,222" x1="22.77519" y1="6.54416" x2="32.21603" y2="18.20052" />
      <line class="basepairs" id="204,221" x1="11.11884" y1="15.98499" x2="20.55967" y2="27.64134" />
      <line class="basepairs" id="205,218" x1="-0.58737" y1="25.36394" x2="8.72943" y2="37.11967" />
      <line class="basepairs" id="206,215" x1="-12.39229" y1="34.61833" x2="-3.20057" y2="46.47212" />
      <line class="basepairs" id="207,214" x1="-24.24608" y1="43.81006" x2="-15.05436" y2="55.66383" />
      <line class="basepairs" id="208,213" x1="-36.09986" y1="53.00177" x2="-26.90814" y2="64.85556" />
      <line class="basepairs" id="234,430" x1="151.45221" y1="-63.42513" x2="165.40353" y2="-68.93518" />
      <line class="basepairs" id="235,429" x1="156.96227" y1="-49.47381" x2="170.91357" y2="-54.98386" />
      <line class="basepairs" id="237,427" x1="166.70676" y1="-24.80095" x2="180.65808" y2="-30.31099" />
      <line class="basepairs" id="238,426" x1="172.21680" y1="-10.84962" x2="186.16812" y2="-16.35966" />
      <line class="basepairs" id="239,246" x1="170.74901" y1="4.07838" x2="183.36000" y2="12.20015" />
      <line class="basepairs" id="240,245" x1="162.62724" y1="16.68938" x2="175.23824" y2="24.81114" />
      <line class="basepairs" id="247,425" x1="198.31577" y1="13.35129" x2="212.02110" y2="7.25508" />
      <line class="basepairs" id="248,423" x1="204.37564" y1="27.07272" x2="218.11308" y2="21.04921" />
      <line class="basepairs" id="249,422" x1="210.39915" y1="40.81017" x2="224.13660" y2="34.78665" />
      <line class="basepairs" id="250,421" x1="216.42268" y1="54.54761" x2="230.16011" y2="48.52409" />
      <line class="basepairs" id="251,386" x1="196.58408" y1="95.32184" x2="211.17839" y2="91.85687" />
      <line class="basepairs" id="253,385" x1="200.10625" y1="109.98419" x2="214.68199" y2="106.44196" />
      <line class="basepairs" id="255,384" x1="203.70604" y1="124.62769" x2="218.26283" y2="121.00827" />
      <line class="basepairs" id="256,383" x1="207.32545" y1="139.18448" x2="221.88223" y2="135.56506" />
      <line class="basepairs" id="257,382" x1="210.94485" y1="153.74124" x2="225.50163" y2="150.12186" />
      <line class="basepairs" id="258,381" x1="214.56425" y1="168.29803" x2="229.12103" y2="164.67862" />
      <line class="basepairs" id="260,380" x1="218.24159" y1="182.92224" x2="232.77899" y2="179.22577" />
      <line class="basepairs" id="261,362" x1="201.50104" y1="212.12054" x2="216.31200" y2="209.74658" />
      <line class="basepairs" id="262,360" x1="203.83578" y1="226.93774" x2="218.65910" y2="224.64224" />
      <line class="basepairs" id="263,359" x1="206.13127" y1="241.76105" x2="220.95459" y2="239.46558" />
      <line class="basepairs" id="264,358" x1="208.42676" y1="256.58438" x2="223.25008" y2="254.28888" />
      <line class="basepairs" id="266,357" x1="210.77386" y1="271.48004" x2="225.58482" y2="269.10608" />
      <line class="basepairs" id="267,356" x1="213.14786" y1="286.29102" x2="227.95880" y2="283.91702" />
      <line class="basepairs" id="269,355" x1="215.57385" y1="301.17404" x2="230.37201" y2="298.72162" />
      <line class="basepairs" id="270,354" x1="218.02626" y1="315.97220" x2="232.82443" y2="313.51981" />
      <line class="basepairs" id="271,353" x1="220.47868" y1="330.77039" x2="235.27684" y2="328.31796" />
      <line class="basepairs" id="272,287" x1="220.35948" y1="345.76990" x2="235.11681" y2="348.45721" />
      <line class="basepairs" id="273,286" x1="217.67220" y1="360.52722" x2="232.42950" y2="363.21448" />
      <line class="basepairs" id="274,285" x1="214.98491" y1="375.28455" x2="229.74222" y2="377.97180" />
      <line class="basepairs" id="275,284" x1="212.29761" y1="390.04187" x2="227.05493" y2="392.72913" />
      <line class="basepairs" id="276,283" x1="209.61032" y1="404.79919" x2="224.36765" y2="407.48645" />
      <line class="basepairs" id="277,282" x1="206.92303" y1="419.55652" x2="221.68036" y2="422.24377" />
      <line class="basepairs" id="288,351" x1="250.10922" y1="347.98047" x2="264.66602" y2="344.36108" />
      <line class="basepairs" id="289,348" x1="253.65146" y1="362.55621" x2="268.24576" y2="359.09125" />
      <line class="basepairs" id="291,347" x1="257.17361" y1="377.21857" x2="271.74939" y2="373.67633" />
      <line class="basepairs" id="293,344" x1="264.32834" y1="406.98187" x2="278.92267" y2="403.51691" />
      <line class="basepairs" id="294,343" x1="267.79330" y1="421.57623" x2="282.38763" y2="418.11127" />
      <line class="basepairs" id="296,342" x1="271.31549" y1="436.23859" x2="285.89124" y2="432.69635" />
      <line class="basepairs" id="297,341" x1="274.85773" y1="450.81433" x2="289.43347" y2="447.27209" />
      <line class="basepairs" id="299,340" x1="278.45752" y1="465.45782" x2="293.01428" y2="461.83838" />
      <line class="basepairs" id="302,339" x1="282.19315" y1="480.14923" x2="296.71075" y2="476.37579" />
      <line class="basepairs" id="304,334" x1="290.80441" y1="514.34314" x2="305.38016" y2="510.80090" />
      <line class="basepairs" id="306,333" x1="294.40421" y1="528.98663" x2="308.96100" y2="525.36725" />
      <line class="basepairs" id="307,332" x1="298.02362" y1="543.54340" x2="312.58038" y2="539.92401" />
      <line class="basepairs" id="308,331" x1="301.64301" y1="558.10022" x2="316.19980" y2="554.48077" />
      <line class="basepairs" id="310,330" x1="305.32034" y1="572.72443" x2="319.85776" y2="569.02795" />
      <line class="basepairs" id="311,327" x1="308.93976" y1="587.28119" x2="323.51550" y2="583.73895" />
      <line class="basepairs" id="312,326" x1="312.48199" y1="601.85693" x2="327.05774" y2="598.31470" />
      <line class="basepairs" id="313,325" x1="316.02423" y1="616.43268" x2="330.59998" y2="612.89050" />
      <line class="basepairs" id="314,322" x1="319.48920" y1="631.02704" x2="334.10165" y2="627.63940" />
      <line class="basepairs" id="315,321" x1="322.87677" y1="645.63947" x2="337.48926" y2="642.25189" />
      <line class="basepairs" id="363,379" x1="229.65720" y1="202.89780" x2="240.22157" y2="192.24915" />
      <line class="basepairs" id="364,377" x1="240.27783" y1="213.49033" x2="250.89847" y2="202.89780" />
      <line class="basepairs" id="365,376" x1="250.87038" y1="224.11099" x2="261.49103" y2="213.51843" />
      <line class="basepairs" id="367,375" x1="261.54727" y1="234.75964" x2="272.11166" y2="224.11099" />
      <line class="basepairs" id="368,373" x1="272.16794" y1="245.35217" x2="282.78857" y2="234.75964" />
      <line class="basepairs" id="388,420" x1="234.39073" y1="72.85196" x2="240.66792" y2="59.22856" />
      <line class="basepairs" id="389,419" x1="248.01413" y1="79.12915" x2="254.29132" y2="65.50575" />
      <line class="basepairs" id="390,417" x1="261.62085" y1="85.44241" x2="267.97012" y2="71.85246" />
      <line class="basepairs" id="391,416" x1="275.21082" y1="91.79169" x2="281.56009" y2="78.20174" />
      <line class="basepairs" id="392,413" x1="288.76694" y1="98.21286" x2="295.25983" y2="84.69095" />
      <line class="basepairs" id="393,412" x1="302.28885" y1="104.70578" x2="308.78174" y2="91.18387" />
      <line class="basepairs" id="394,411" x1="315.81076" y1="111.19867" x2="322.30365" y2="97.67676" />
      <line class="basepairs" id="396,410" x1="329.42154" y1="117.68997" x2="335.84271" y2="104.13385" />
      <line class="basepairs" id="397,408" x1="342.96060" y1="124.14703" x2="349.45352" y2="110.62512" />
      <line class="basepairs" id="398,407" x1="356.48251" y1="130.63995" x2="362.97543" y2="117.11804" />
      <line class="basepairs" id="399,406" x1="370.00443" y1="137.13284" x2="376.49734" y2="123.61093" />
      <line class="basepairs" id="400,405" x1="383.52634" y1="143.62576" x2="390.01926" y2="130.10385" />
      <line class="basepairs" id="432,465" x1="171.07866" y1="-94.97802" x2="170.48282" y2="-109.96619" />
      <line class="basepairs" id="433,464" x1="186.06682" y1="-95.57387" x2="185.47098" y2="-110.56203" />
      <line class="basepairs" id="434,463" x1="201.05499" y1="-96.16972" x2="200.45914" y2="-111.15788" />
      <line class="basepairs" id="435,462" x1="216.04315" y1="-96.76556" x2="215.44730" y2="-111.75372" />
      <line class="basepairs" id="436,460" x1="231.03284" y1="-97.32170" x2="230.51640" y2="-112.31281" />
      <line class="basepairs" id="437,459" x1="246.02394" y1="-97.83813" x2="245.50751" y2="-112.82924" />
      <line class="basepairs" id="438,443" x1="261.02374" y1="-97.75867" x2="261.69897" y2="-112.74346" />
      <line class="basepairs" id="444,458" x1="261.54004" y1="-127.74261" x2="260.54742" y2="-142.70975" />
      <line class="basepairs" id="445,457" x1="276.50717" y1="-128.73523" x2="275.51456" y2="-143.70235" />
      <line class="basepairs" id="446,455" x1="291.47687" y1="-129.68819" x2="290.56357" y2="-144.66035" />
      <line class="basepairs" id="447,453" x1="306.45139" y1="-130.56183" x2="305.61743" y2="-145.53864" />
      <line class="basepairs" id="479,578" x1="113.06414" y1="-275.58163" x2="101.43283" y2="-285.05331" />
      <line class="basepairs" id="480,577" x1="122.53582" y1="-287.21295" x2="110.90451" y2="-296.68463" />
      <line class="basepairs" id="483,576" x1="132.04544" y1="-299.01804" x2="120.31444" y2="-308.36594" />
      <line class="basepairs" id="484,575" x1="141.39336" y1="-310.74902" x2="129.66234" y2="-320.09695" />
      <line class="basepairs" id="485,574" x1="150.74127" y1="-322.48004" x2="139.01025" y2="-331.82794" />
      <line class="basepairs" id="486,573" x1="160.08917" y1="-334.21106" x2="148.35817" y2="-343.55896" />
      <line class="basepairs" id="487,571" x1="169.46812" y1="-345.91727" x2="157.78680" y2="-355.32721" />
      <line class="basepairs" id="488,569" x1="178.90895" y1="-357.57361" x2="167.27765" y2="-367.04529" />
      <line class="basepairs" id="489,568" x1="188.38063" y1="-369.20493" x2="176.74933" y2="-378.67661" />
      <line class="basepairs" id="491,567" x1="197.87149" y1="-380.92303" x2="186.19017" y2="-390.33295" />
      <line class="basepairs" id="492,566" x1="207.28142" y1="-392.60437" x2="195.60010" y2="-402.01428" />
      <line class="basepairs" id="493,565" x1="216.69135" y1="-404.28571" x2="205.01001" y2="-413.69562" />
      <line class="basepairs" id="494,563" x1="226.13217" y1="-415.94205" x2="214.50087" y2="-425.41370" />
      <line class="basepairs" id="496,562" x1="235.62303" y1="-427.66016" x2="223.94170" y2="-437.07007" />
      <line class="basepairs" id="498,561" x1="245.05167" y1="-439.42838" x2="233.32065" y2="-448.77628" />
      <line class="basepairs" id="499,549" x1="278.62439" y1="-437.71167" x2="267.45773" y2="-447.72696" />
      <line class="basepairs" id="501,548" x1="288.66296" y1="-448.96411" x2="277.44342" y2="-458.92007" />
      <line class="basepairs" id="502,547" x1="298.61896" y1="-460.18365" x2="287.39941" y2="-470.13965" />
      <line class="basepairs" id="503,546" x1="308.57495" y1="-471.40320" x2="297.35538" y2="-481.35919" />
      <line class="basepairs" id="504,545" x1="318.53091" y1="-482.62274" x2="307.31137" y2="-492.57874" />
      <line class="basepairs" id="505,544" x1="328.48691" y1="-493.84232" x2="317.26736" y2="-503.79828" />
      <line class="basepairs" id="506,542" x1="338.47260" y1="-505.03543" x2="327.30594" y2="-515.05072" />
      <line class="basepairs" id="507,538" x1="348.57629" y1="-516.12219" x2="337.57022" y2="-526.31360" />
      <line class="basepairs" id="508,536" x1="358.79691" y1="-527.10120" x2="347.84497" y2="-537.35083" />
      <line class="basepairs" id="509,535" x1="369.04657" y1="-538.05310" x2="358.09464" y2="-548.30273" />
      <line class="basepairs" id="510,534" x1="379.29620" y1="-549.00500" x2="368.34430" y2="-559.25464" />
      <line class="basepairs" id="511,532" x1="389.57483" y1="-559.92975" x2="378.67737" y2="-570.23730" />
      <line class="basepairs" id="512,530" x1="399.91119" y1="-570.79993" x2="389.06851" y2="-581.16504" />
      <line class="basepairs" id="513,528" x1="410.30502" y1="-581.61511" x2="399.51736" y2="-592.03748" />
      <line class="basepairs" id="514,527" x1="420.72742" y1="-592.40271" x2="409.93979" y2="-602.82520" />
      <line class="basepairs" id="515,526" x1="431.14984" y1="-603.19043" x2="420.36218" y2="-613.61279" />
      <line class="basepairs" id="516,525" x1="441.57227" y1="-613.97803" x2="430.78461" y2="-624.40045" />
      <line class="basepairs" id="518,524" x1="452.02112" y1="-624.85052" x2="441.17841" y2="-635.21570" />
      <line class="basepairs" id="550,560" x1="254.80391" y1="-455.78180" x2="241.00342" y2="-461.65942" />
      <line class="basepairs" id="551,559" x1="260.68152" y1="-469.58228" x2="246.88104" y2="-475.45990" />
      <line class="basepairs" id="553,558" x1="266.55353" y1="-483.47150" x2="252.72209" y2="-489.27591" />
    </g>
    <g transform="translate(-4.6, 4)" id="seq">
      <text class="nucleotide" x="-67.643" y="-426.544">G</text>
      <text class="nucleotide" x="-71.605" y="-434.655">G</text>
      <text class="nucleotide" x="-78.543" y="-436.964">U</text>
      <text class="nucleotide" x="-83.212" y="-452.081">G</text>
      <text class="nucleotide" x="-97.766" y="-455.244">C</text>
      <text class="nucleotide" x="-108.637" y="-465.580">C</text>
      <text class="nucleotide" x="-115.767" y="-478.777">G</text>
      <text class="nucleotide" x="-118.454" y="-493.535">A</text>
      <text class="nucleotide" x="-111.794" y="-504.500">G</text>
      <text class="nucleotide" x="-114.266" y="-516.682">U</text>
      <text class="nucleotide" x="-124.027" y="-523.715">C</text>
      <text class="nucleotide" x="-126.793" y="-538.458">C</text>
      <text class="nucleotide" x="-129.558" y="-553.201">U</text>
      <text class="nucleotide" x="-132.324" y="-567.944">G</text>
      <text class="nucleotide" x="-135.089" y="-582.686">C</text>
      <text class="nucleotide" x="-129.141" y="-597.969">C</text>
      <text class="nucleotide" x="-139.611" y="-610.590">A</text>
      <text class="nucleotide" x="-155.729" y="-607.567">C</text>
      <text class="nucleotide" x="-160.914" y="-592.009">U</text>
      <text class="nucleotide" x="-149.832" y="-579.921">G</text>
      <text class="nucleotide" x="-147.067" y="-565.178">C</text>
      <text class="nucleotide" x="-144.301" y="-550.435">A</text>
      <text class="nucleotide" x="-141.536" y="-535.692">G</text>
      <text class="nucleotide" x="-138.770" y="-520.950">G</text>
      <text class="nucleotide" x="-145.447" y="-504.673">G</text>
      <text class="nucleotide" x="-133.211" y="-490.847">U</text>
      <text class="nucleotide" x="-130.524" y="-476.090">C</text>
      <text class="nucleotide" x="-143.304" y="-468.237">G</text>
      <text class="nucleotide" x="-155.255" y="-477.303">C</text>
      <text class="nucleotide" x="-167.205" y="-486.368">C</text>
      <text class="nucleotide" x="-179.156" y="-495.434">C</text>
      <text class="nucleotide" x="-191.106" y="-504.500">C</text>
      <text class="nucleotide" x="-197.425" y="-519.005">G</text>
      <text class="nucleotide" x="-212.241" y="-520.532">C</text>
      <text class="nucleotide" x="-224.143" y="-529.661">U</text>
      <text class="nucleotide" x="-235.997" y="-538.853">G</text>
      <text class="nucleotide" x="-247.851" y="-548.044">G</text>
      <text class="nucleotide" x="-248.570" y="-558.765">C</text>
      <text class="nucleotide" x="-254.893" y="-567.181">U</text>
      <text class="nucleotide" x="-264.580" y="-570.708">C</text>
      <text class="nucleotide" x="-274.408" y="-568.425">A</text>
      <text class="nucleotide" x="-286.359" y="-577.491">A</text>
      <text class="nucleotide" x="-298.309" y="-586.556">G</text>
      <text class="nucleotide" x="-303.188" y="-594.152">C</text>
      <text class="nucleotide" x="-310.347" y="-595.638">U</text>
      <text class="nucleotide" x="-313.216" y="-601.408">C</text>
      <text class="nucleotide" x="-317.844" y="-604.475">U</text>
      <text class="nucleotide" x="-322.521" y="-604.671">A</text>
      <text class="nucleotide" x="-327.519" y="-612.188">G</text>
      <text class="nucleotide" x="-334.702" y="-613.560">A</text>
      <text class="nucleotide" x="-346.841" y="-622.371">A</text>
      <text class="nucleotide" x="-358.958" y="-631.213">G</text>
      <text class="nucleotide" x="-363.957" y="-638.730">C</text>
      <text class="nucleotide" x="-371.139" y="-640.103">G</text>
      <text class="nucleotide" x="-383.279" y="-648.913">U</text>
      <text class="nucleotide" x="-395.419" y="-657.723">A</text>
      <text class="nucleotide" x="-407.559" y="-666.534">G</text>
      <text class="nucleotide" x="-412.597" y="-674.024">A</text>
      <text class="nucleotide" x="-419.786" y="-675.358">C</text>
      <text class="nucleotide" x="-431.949" y="-684.136">C</text>
      <text class="nucleotide" x="-442.792" y="-694.502">U</text>
      <text class="nucleotide" x="-444.694" y="-710.790">C</text>
      <text class="nucleotide" x="-459.856" y="-717.038">C</text>
      <text class="nucleotide" x="-472.681" y="-706.818">C</text>
      <text class="nucleotide" x="-469.976" y="-690.644">C</text>
      <text class="nucleotide" x="-454.523" y="-685.154">A</text>
      <text class="nucleotide" x="-464.715" y="-674.148">G</text>
      <text class="nucleotide" x="-467.855" y="-679.774">C</text>
      <text class="nucleotide" x="-472.624" y="-682.618">C</text>
      <text class="nucleotide" x="-477.305" y="-682.590">G</text>
      <text class="nucleotide" x="-477.490" y="-716.390">C</text>
      <text class="nucleotide" x="-489.723" y="-725.071">A</text>
      <text class="nucleotide" x="-501.955" y="-733.752">A</text>
      <text class="nucleotide" x="-514.188" y="-742.434">A</text>
      <text class="nucleotide" x="-526.420" y="-751.115">A</text>
      <text class="nucleotide" x="-538.630" y="-759.828">A</text>
      <text class="nucleotide" x="-550.816" y="-768.574">G</text>
      <text class="nucleotide" x="-552.392" y="-772.371">C</text>
      <text class="nucleotide" x="-554.813" y="-775.231">A</text>
      <text class="nucleotide" x="-557.702" y="-777.008">A</text>
      <text class="nucleotide" x="-560.668" y="-777.685">C</text>
      <text class="nucleotide" x="-563.355" y="-777.373">U</text>
      <text class="nucleotide" x="-575.724" y="-785.859">C</text>
      <text class="nucleotide" x="-580.959" y="-793.214">A</text>
      <text class="nucleotide" x="-588.181" y="-794.357">C</text>
      <text class="nucleotide" x="-600.595" y="-802.777">G</text>
      <text class="nucleotide" x="-613.009" y="-811.197">C</text>
      <text class="nucleotide" x="-625.423" y="-819.617">G</text>
      <text class="nucleotide" x="-637.836" y="-828.037">G</text>
      <text class="nucleotide" x="-642.257" y="-843.459">C</text>
      <text class="nucleotide" x="-657.125" y="-849.485">G</text>
      <text class="nucleotide" x="-671.035" y="-841.493">A</text>
      <text class="nucleotide" x="-673.317" y="-825.613">A</text>
      <text class="nucleotide" x="-662.220" y="-814.027">A</text>
      <text class="nucleotide" x="-646.256" y="-815.623">C</text>
      <text class="nucleotide" x="-633.843" y="-807.203">C</text>
      <text class="nucleotide" x="-621.429" y="-798.783">G</text>
      <text class="nucleotide" x="-609.015" y="-790.363">C</text>
      <text class="nucleotide" x="-596.601" y="-781.943">G</text>
      <text class="nucleotide" x="-584.210" y="-773.490">G</text>
      <text class="nucleotide" x="-571.841" y="-765.004">A</text>
      <text class="nucleotide" x="-559.562" y="-756.388">C</text>
      <text class="nucleotide" x="-547.376" y="-747.642">U</text>
      <text class="nucleotide" x="-543.811" y="-741.258">C</text>
      <text class="nucleotide" x="-535.102" y="-738.882">U</text>
      <text class="nucleotide" x="-522.869" y="-730.201">U</text>
      <text class="nucleotide" x="-510.637" y="-721.520">U</text>
      <text class="nucleotide" x="-498.404" y="-712.839">U</text>
      <text class="nucleotide" x="-486.171" y="-704.157">G</text>
      <text class="nucleotide" x="-493.336" y="-690.979">A</text>
      <text class="nucleotide" x="-503.069" y="-704.178">C</text>
      <text class="nucleotide" x="-519.334" y="-702.079">C</text>
      <text class="nucleotide" x="-525.398" y="-686.843">C</text>
      <text class="nucleotide" x="-515.024" y="-674.142">U</text>
      <text class="nucleotide" x="-498.883" y="-677.043">U</text>
      <text class="nucleotide" x="-485.593" y="-670.088">C</text>
      <text class="nucleotide" x="-473.135" y="-661.734">C</text>
      <text class="nucleotide" x="-440.760" y="-671.997">G</text>
      <text class="nucleotide" x="-437.229" y="-665.594">A</text>
      <text class="nucleotide" x="-428.532" y="-663.172">G</text>
      <text class="nucleotide" x="-416.369" y="-654.394">C</text>
      <text class="nucleotide" x="-404.229" y="-645.583">U</text>
      <text class="nucleotide" x="-392.089" y="-636.773">A</text>
      <text class="nucleotide" x="-379.949" y="-627.963">C</text>
      <text class="nucleotide" x="-367.833" y="-619.120">C</text>
      <text class="nucleotide" x="-364.335" y="-612.699">A</text>
      <text class="nucleotide" x="-355.652" y="-610.231">U</text>
      <text class="nucleotide" x="-343.512" y="-601.421">U</text>
      <text class="nucleotide" x="-331.395" y="-592.578">U</text>
      <text class="nucleotide" x="-319.349" y="-583.640">A</text>
      <text class="nucleotide" x="-307.375" y="-574.606">C</text>
      <text class="nucleotide" x="-295.424" y="-565.540">U</text>
      <text class="nucleotide" x="-283.474" y="-556.474">U</text>
      <text class="nucleotide" x="-277.174" y="-538.131">U</text>
      <text class="nucleotide" x="-257.042" y="-536.191">C</text>
      <text class="nucleotide" x="-245.188" y="-526.999">C</text>
      <text class="nucleotide" x="-233.335" y="-517.807">A</text>
      <text class="nucleotide" x="-231.862" y="-513.363">U</text>
      <text class="nucleotide" x="-227.642" y="-509.756">A</text>
      <text class="nucleotide" x="-221.306" y="-508.582">G</text>
      <text class="nucleotide" x="-215.843" y="-494.725">A</text>
      <text class="nucleotide" x="-200.172" y="-492.549">G</text>
      <text class="nucleotide" x="-188.221" y="-483.484">G</text>
      <text class="nucleotide" x="-176.271" y="-474.418">G</text>
      <text class="nucleotide" x="-164.320" y="-465.352">G</text>
      <text class="nucleotide" x="-152.370" y="-456.287">C</text>
      <text class="nucleotide" x="-118.973" y="-454.710">G</text>
      <text class="nucleotide" x="-108.103" y="-444.374">G</text>
      <text class="nucleotide" x="-104.211" y="-429.996">G</text>
      <text class="nucleotide" x="-88.879" y="-426.094">A</text>
      <text class="nucleotide" x="-78.036" y="-415.729">C</text>
      <text class="nucleotide" x="-67.249" y="-405.306">U</text>
      <text class="nucleotide" x="-56.489" y="-394.855">U</text>
      <text class="nucleotide" x="-55.519" y="-390.276">C</text>
      <text class="nucleotide" x="-51.725" y="-386.222">C</text>
      <text class="nucleotide" x="-45.559" y="-384.352">U</text>
      <text class="nucleotide" x="-42.904" y="-377.538">G</text>
      <text class="nucleotide" x="-34.604" y="-373.989">U</text>
      <text class="nucleotide" x="-23.679" y="-363.711">U</text>
      <text class="nucleotide" x="-12.754" y="-353.432">U</text>
      <text class="nucleotide" x="-12.253" y="-350.041">C</text>
      <text class="nucleotide" x="-10.146" y="-346.708">G</text>
      <text class="nucleotide" x="-6.469" y="-344.159">C</text>
      <text class="nucleotide" x="-1.573" y="-343.079">U</text>
      <text class="nucleotide" x="9.513" y="-332.975">U</text>
      <text class="nucleotide" x="20.600" y="-322.871">U</text>
      <text class="nucleotide" x="31.687" y="-312.768">U</text>
      <text class="nucleotide" x="34.485" y="-306.012">A</text>
      <text class="nucleotide" x="42.859" y="-302.640">U</text>
      <text class="nucleotide" x="45.693" y="-295.899">C</text>
      <text class="nucleotide" x="54.085" y="-292.571">U</text>
      <text class="nucleotide" x="65.278" y="-282.586">U</text>
      <text class="nucleotide" x="68.148" y="-275.861">G</text>
      <text class="nucleotide" x="76.557" y="-272.577">U</text>
      <text class="nucleotide" x="96.089" y="-256.143">C</text>
      <text class="nucleotide" x="100.777" y="-241.895">U</text>
      <text class="nucleotide" x="105.465" y="-227.646">C</text>
      <text class="nucleotide" x="104.516" y="-221.273">G</text>
      <text class="nucleotide" x="106.556" y="-216.109">C</text>
      <text class="nucleotide" x="110.279" y="-213.272">U</text>
      <text class="nucleotide" x="115.118" y="-199.074">C</text>
      <text class="nucleotide" x="119.957" y="-184.876">U</text>
      <text class="nucleotide" x="124.796" y="-170.678">U</text>
      <text class="nucleotide" x="129.635" y="-156.480">C</text>
      <text class="nucleotide" x="134.398" y="-142.256">C</text>
      <text class="nucleotide" x="134.100" y="-133.234">G</text>
      <text class="nucleotide" x="139.149" y="-127.945">C</text>
      <text class="nucleotide" x="143.913" y="-113.721">C</text>
      <text class="nucleotide" x="136.677" y="-97.547">C</text>
      <text class="nucleotide" x="146.680" y="-81.205">A</text>
      <text class="nucleotide" x="137.562" y="-82.311">G</text>
      <text class="nucleotide" x="127.504" y="-78.893">U</text>
      <text class="nucleotide" x="118.963" y="-75.969">C</text>
      <text class="nucleotide" x="115.811" y="-69.372">U</text>
      <text class="nucleotide" x="107.286" y="-66.402">C</text>
      <text class="nucleotide" x="104.169" y="-59.788">G</text>
      <text class="nucleotide" x="92.613" y="-50.224">A</text>
      <text class="nucleotide" x="81.032" y="-40.691">G</text>
      <text class="nucleotide" x="69.401" y="-31.219">U</text>
      <text class="nucleotide" x="57.744" y="-21.778">G</text>
      <text class="nucleotide" x="46.088" y="-12.338">C</text>
      <text class="nucleotide" x="34.432" y="-2.897">A</text>
      <text class="nucleotide" x="22.775" y="6.544">G</text>
      <text class="nucleotide" x="11.119" y="15.985">U</text>
      <text class="nucleotide" x="-0.587" y="25.364">G</text>
      <text class="nucleotide" x="-12.392" y="34.618">G</text>
      <text class="nucleotide" x="-24.246" y="43.810">U</text>
      <text class="nucleotide" x="-36.100" y="53.002">G</text>
      <text class="nucleotide" x="-52.412" y="54.688">A</text>
      <text class="nucleotide" x="-58.860" y="69.766">G</text>
      <text class="nucleotide" x="-48.811" y="82.725">A</text>
      <text class="nucleotide" x="-32.603" y="80.234">A</text>
      <text class="nucleotide" x="-26.908" y="64.856">C</text>
      <text class="nucleotide" x="-15.054" y="55.664">A</text>
      <text class="nucleotide" x="-3.201" y="46.472">C</text>
      <text class="nucleotide" x="1.470" y="46.153">G</text>
      <text class="nucleotide" x="6.015" y="42.963">G</text>
      <text class="nucleotide" x="8.729" y="37.120">C</text>
      <text class="nucleotide" x="13.396" y="36.751">U</text>
      <text class="nucleotide" x="17.907" y="33.514">U</text>
      <text class="nucleotide" x="20.560" y="27.641">A</text>
      <text class="nucleotide" x="32.216" y="18.201">C</text>
      <text class="nucleotide" x="43.872" y="8.760">U</text>
      <text class="nucleotide" x="55.529" y="-0.681">G</text>
      <text class="nucleotide" x="67.185" y="-10.122">C</text>
      <text class="nucleotide" x="78.841" y="-19.563">A</text>
      <text class="nucleotide" x="85.941" y="-21.313">G</text>
      <text class="nucleotide" x="90.534" y="-29.085">C</text>
      <text class="nucleotide" x="97.624" y="-30.873">C</text>
      <text class="nucleotide" x="102.177" y="-38.668">U</text>
      <text class="nucleotide" x="113.732" y="-48.232">C</text>
      <text class="nucleotide" x="125.313" y="-57.765">A</text>
      <text class="nucleotide" x="136.945" y="-67.237">A</text>
      <text class="nucleotide" x="151.452" y="-63.425">A</text>
      <text class="nucleotide" x="156.962" y="-49.474">A</text>
      <text class="nucleotide" x="154.835" y="-33.796">U</text>
      <text class="nucleotide" x="166.707" y="-24.801">C</text>
      <text class="nucleotide" x="172.217" y="-10.850">C</text>
      <text class="nucleotide" x="170.749" y="4.078">U</text>
      <text class="nucleotide" x="162.627" y="16.689">G</text>
      <text class="nucleotide" x="147.804" y="23.705">G</text>
      <text class="nucleotide" x="146.738" y="40.069">A</text>
      <text class="nucleotide" x="160.525" y="48.948">C</text>
      <text class="nucleotide" x="174.983" y="41.208">C</text>
      <text class="nucleotide" x="175.238" y="24.811">C</text>
      <text class="nucleotide" x="183.360" y="12.200">A</text>
      <text class="nucleotide" x="198.316" y="13.351">A</text>
      <text class="nucleotide" x="204.376" y="27.073">A</text>
      <text class="nucleotide" x="210.399" y="40.810">A</text>
      <text class="nucleotide" x="216.423" y="54.548">G</text>
      <text class="nucleotide" x="196.584" y="95.322">A</text>
      <text class="nucleotide" x="195.523" y="104.287">U</text>
      <text class="nucleotide" x="200.106" y="109.984">C</text>
      <text class="nucleotide" x="199.093" y="118.955">C</text>
      <text class="nucleotide" x="203.706" y="124.628">U</text>
      <text class="nucleotide" x="207.325" y="139.184">C</text>
      <text class="nucleotide" x="210.945" y="153.741">C</text>
      <text class="nucleotide" x="214.564" y="168.298">C</text>
      <text class="nucleotide" x="213.598" y="177.274">A</text>
      <text class="nucleotide" x="218.242" y="182.922">C</text>
      <text class="nucleotide" x="201.501" y="212.121">C</text>
      <text class="nucleotide" x="203.836" y="226.938">U</text>
      <text class="nucleotide" x="206.131" y="241.761">C</text>
      <text class="nucleotide" x="208.427" y="256.584">A</text>
      <text class="nucleotide" x="206.658" y="265.437">G</text>
      <text class="nucleotide" x="210.774" y="271.480">C</text>
      <text class="nucleotide" x="213.148" y="286.291">C</text>
      <text class="nucleotide" x="211.426" y="295.153">U</text>
      <text class="nucleotide" x="215.574" y="301.174">G</text>
      <text class="nucleotide" x="218.026" y="315.972">C</text>
      <text class="nucleotide" x="220.479" y="330.770">C</text>
      <text class="nucleotide" x="220.359" y="345.770">U</text>
      <text class="nucleotide" x="217.672" y="360.527">C</text>
      <text class="nucleotide" x="214.985" y="375.285">C</text>
      <text class="nucleotide" x="212.298" y="390.042">C</text>
      <text class="nucleotide" x="209.610" y="404.799">A</text>
      <text class="nucleotide" x="206.923" y="419.557">G</text>
      <text class="nucleotide" x="195.905" y="431.703">G</text>
      <text class="nucleotide" x="201.172" y="447.233">U</text>
      <text class="nucleotide" x="217.306" y="450.171">A</text>
      <text class="nucleotide" x="227.709" y="437.494">G</text>
      <text class="nucleotide" x="221.680" y="422.244">C</text>
      <text class="nucleotide" x="224.368" y="407.486">U</text>
      <text class="nucleotide" x="227.055" y="392.729">G</text>
      <text class="nucleotide" x="229.742" y="377.972">G</text>
      <text class="nucleotide" x="232.430" y="363.214">G</text>
      <text class="nucleotide" x="235.117" y="348.457">A</text>
      <text class="nucleotide" x="250.109" y="347.980">C</text>
      <text class="nucleotide" x="253.651" y="362.556">U</text>
      <text class="nucleotide" x="252.591" y="371.521">A</text>
      <text class="nucleotide" x="257.174" y="377.219">C</text>
      <text class="nucleotide" x="251.613" y="394.823">A</text>
      <text class="nucleotide" x="264.328" y="406.982">G</text>
      <text class="nucleotide" x="267.793" y="421.576">G</text>
      <text class="nucleotide" x="266.732" y="430.541">C</text>
      <text class="nucleotide" x="271.315" y="436.239">G</text>
      <text class="nucleotide" x="274.858" y="450.814">C</text>
      <text class="nucleotide" x="273.844" y="459.785">A</text>
      <text class="nucleotide" x="278.458" y="465.458">C</text>
      <text class="nucleotide" x="277.038" y="471.743">A</text>
      <text class="nucleotide" x="278.690" y="477.044">A</text>
      <text class="nucleotide" x="282.193" y="480.149">C</text>
      <text class="nucleotide" x="275.392" y="500.538">A</text>
      <text class="nucleotide" x="290.804" y="514.343">C</text>
      <text class="nucleotide" x="289.791" y="523.313">C</text>
      <text class="nucleotide" x="294.404" y="528.987">A</text>
      <text class="nucleotide" x="298.024" y="543.543">U</text>
      <text class="nucleotide" x="301.643" y="558.100">C</text>
      <text class="nucleotide" x="300.677" y="567.076">G</text>
      <text class="nucleotide" x="305.320" y="572.724">C</text>
      <text class="nucleotide" x="308.940" y="587.281">U</text>
      <text class="nucleotide" x="312.482" y="601.857">U</text>
      <text class="nucleotide" x="316.024" y="616.433">C</text>
      <text class="nucleotide" x="319.489" y="631.027">U</text>
      <text class="nucleotide" x="322.877" y="645.639">U</text>
      <text class="nucleotide" x="315.642" y="659.959">G</text>
      <text class="nucleotide" x="322.457" y="674.482">G</text>
      <text class="nucleotide" x="338.094" y="678.069">A</text>
      <text class="nucleotide" x="350.557" y="667.968">U</text>
      <text class="nucleotide" x="350.287" y="651.927">U</text>
      <text class="nucleotide" x="337.489" y="642.252">A</text>
      <text class="nucleotide" x="334.102" y="627.639">A</text>
      <text class="nucleotide" x="335.766" y="623.264">A</text>
      <text class="nucleotide" x="334.771" y="617.801">A</text>
      <text class="nucleotide" x="330.600" y="612.891">G</text>
      <text class="nucleotide" x="327.058" y="598.315">A</text>
      <text class="nucleotide" x="323.516" y="583.739">A</text>
      <text class="nucleotide" x="325.133" y="579.346">A</text>
      <text class="nucleotide" x="324.081" y="573.894">A</text>
      <text class="nucleotide" x="319.858" y="569.028">G</text>
      <text class="nucleotide" x="316.200" y="554.481">G</text>
      <text class="nucleotide" x="312.580" y="539.924">A</text>
      <text class="nucleotide" x="308.961" y="525.367">U</text>
      <text class="nucleotide" x="305.380" y="510.801">G</text>
      <text class="nucleotide" x="311.062" y="504.216">A</text>
      <text class="nucleotide" x="313.167" y="495.637">A</text>
      <text class="nucleotide" x="311.115" y="486.905">A</text>
      <text class="nucleotide" x="305.234" y="479.953">C</text>
      <text class="nucleotide" x="296.711" y="476.376">G</text>
      <text class="nucleotide" x="293.014" y="461.838">G</text>
      <text class="nucleotide" x="289.433" y="447.272">G</text>
      <text class="nucleotide" x="285.891" y="432.696">C</text>
      <text class="nucleotide" x="282.388" y="418.111">C</text>
      <text class="nucleotide" x="278.923" y="403.517">C</text>
      <text class="nucleotide" x="284.983" y="393.124">C</text>
      <text class="nucleotide" x="282.291" y="380.989">A</text>
      <text class="nucleotide" x="271.749" y="373.676">G</text>
      <text class="nucleotide" x="268.246" y="359.091">A</text>
      <text class="nucleotide" x="269.887" y="354.707">A</text>
      <text class="nucleotide" x="268.863" y="349.250">A</text>
      <text class="nucleotide" x="264.666" y="344.361">G</text>
      <text class="nucleotide" x="250.840" y="328.809">A</text>
      <text class="nucleotide" x="235.277" y="328.318">G</text>
      <text class="nucleotide" x="232.824" y="313.520">G</text>
      <text class="nucleotide" x="230.372" y="298.722">C</text>
      <text class="nucleotide" x="227.959" y="283.917">G</text>
      <text class="nucleotide" x="225.585" y="269.106">G</text>
      <text class="nucleotide" x="223.250" y="254.289">U</text>
      <text class="nucleotide" x="220.955" y="239.466">G</text>
      <text class="nucleotide" x="218.659" y="224.642">A</text>
      <text class="nucleotide" x="220.718" y="217.626">C</text>
      <text class="nucleotide" x="216.312" y="209.747">G</text>
      <text class="nucleotide" x="229.657" y="202.898">U</text>
      <text class="nucleotide" x="240.278" y="213.490">C</text>
      <text class="nucleotide" x="250.870" y="224.111">C</text>
      <text class="nucleotide" x="254.660" y="232.305">C</text>
      <text class="nucleotide" x="261.547" y="234.760">A</text>
      <text class="nucleotide" x="272.168" y="245.352">G</text>
      <text class="nucleotide" x="275.866" y="261.329">A</text>
      <text class="nucleotide" x="291.628" y="265.855">A</text>
      <text class="nucleotide" x="303.240" y="254.274">C</text>
      <text class="nucleotide" x="298.755" y="238.500">C</text>
      <text class="nucleotide" x="282.789" y="234.760">C</text>
      <text class="nucleotide" x="280.315" y="227.879">A</text>
      <text class="nucleotide" x="272.112" y="224.111">U</text>
      <text class="nucleotide" x="261.491" y="213.518">G</text>
      <text class="nucleotide" x="250.898" y="202.898">G</text>
      <text class="nucleotide" x="248.425" y="196.017">C</text>
      <text class="nucleotide" x="240.222" y="192.249">A</text>
      <text class="nucleotide" x="232.779" y="179.226">G</text>
      <text class="nucleotide" x="229.121" y="164.679">G</text>
      <text class="nucleotide" x="225.502" y="150.122">G</text>
      <text class="nucleotide" x="221.882" y="135.565">G</text>
      <text class="nucleotide" x="218.263" y="121.008">A</text>
      <text class="nucleotide" x="214.682" y="106.442">G</text>
      <text class="nucleotide" x="211.178" y="91.857">U</text>
      <text class="nucleotide" x="222.785" y="82.354">U</text>
      <text class="nucleotide" x="234.391" y="72.852">G</text>
      <text class="nucleotide" x="248.014" y="79.129">G</text>
      <text class="nucleotide" x="261.621" y="85.442">G</text>
      <text class="nucleotide" x="275.211" y="91.792">A</text>
      <text class="nucleotide" x="288.767" y="98.213">A</text>
      <text class="nucleotide" x="302.289" y="104.706">A</text>
      <text class="nucleotide" x="315.811" y="111.199">A</text>
      <text class="nucleotide" x="322.110" y="117.665">U</text>
      <text class="nucleotide" x="329.422" y="117.690">A</text>
      <text class="nucleotide" x="342.961" y="124.147">A</text>
      <text class="nucleotide" x="356.483" y="130.640">A</text>
      <text class="nucleotide" x="370.004" y="137.133">U</text>
      <text class="nucleotide" x="383.526" y="143.626">A</text>
      <text class="nucleotide" x="392.328" y="157.463">U</text>
      <text class="nucleotide" x="408.698" y="156.489">U</text>
      <text class="nucleotide" x="415.797" y="141.706">U</text>
      <text class="nucleotide" x="406.321" y="128.321">G</text>
      <text class="nucleotide" x="390.019" y="130.104">U</text>
      <text class="nucleotide" x="376.497" y="123.611">A</text>
      <text class="nucleotide" x="362.975" y="117.118">U</text>
      <text class="nucleotide" x="349.454" y="110.625">U</text>
      <text class="nucleotide" x="344.832" y="104.958">G</text>
      <text class="nucleotide" x="335.843" y="104.134">U</text>
      <text class="nucleotide" x="322.304" y="97.677">U</text>
      <text class="nucleotide" x="308.782" y="91.184">U</text>
      <text class="nucleotide" x="295.260" y="84.691">U</text>
      <text class="nucleotide" x="292.886" y="80.656">A</text>
      <text class="nucleotide" x="288.001" y="78.017">A</text>
      <text class="nucleotide" x="281.560" y="78.202">U</text>
      <text class="nucleotide" x="267.970" y="71.852">C</text>
      <text class="nucleotide" x="263.289" y="66.235">U</text>
      <text class="nucleotide" x="254.291" y="65.506">C</text>
      <text class="nucleotide" x="240.668" y="59.229">C</text>
      <text class="nucleotide" x="230.160" y="48.524">C</text>
      <text class="nucleotide" x="224.137" y="34.787">U</text>
      <text class="nucleotide" x="218.113" y="21.049">U</text>
      <text class="nucleotide" x="218.302" y="13.740">G</text>
      <text class="nucleotide" x="212.021" y="7.255">U</text>
      <text class="nucleotide" x="186.168" y="-16.360">G</text>
      <text class="nucleotide" x="180.658" y="-30.311">G</text>
      <text class="nucleotide" x="183.179" y="-44.991">C</text>
      <text class="nucleotide" x="170.914" y="-54.984">U</text>
      <text class="nucleotide" x="165.404" y="-68.935">U</text>
      <text class="nucleotide" x="161.515" y="-83.422">U</text>
      <text class="nucleotide" x="171.079" y="-94.978">U</text>
      <text class="nucleotide" x="186.067" y="-95.574">U</text>
      <text class="nucleotide" x="201.055" y="-96.170">U</text>
      <text class="nucleotide" x="216.043" y="-96.766">U</text>
      <text class="nucleotide" x="231.033" y="-97.322">A</text>
      <text class="nucleotide" x="246.024" y="-97.838">A</text>
      <text class="nucleotide" x="261.024" y="-97.759">C</text>
      <text class="nucleotide" x="274.543" y="-88.477">C</text>
      <text class="nucleotide" x="289.223" y="-95.788">C</text>
      <text class="nucleotide" x="289.961" y="-112.170">C</text>
      <text class="nucleotide" x="275.999" y="-120.772">C</text>
      <text class="nucleotide" x="261.699" y="-112.743">G</text>
      <text class="nucleotide" x="261.540" y="-127.743">A</text>
      <text class="nucleotide" x="276.507" y="-128.735">A</text>
      <text class="nucleotide" x="291.477" y="-129.688">A</text>
      <text class="nucleotide" x="306.451" y="-130.562">C</text>
      <text class="nucleotide" x="319.319" y="-120.981">A</text>
      <text class="nucleotide" x="334.796" y="-125.207">G</text>
      <text class="nucleotide" x="341.009" y="-139.998">C</text>
      <text class="nucleotide" x="333.192" y="-154.008">A</text>
      <text class="nucleotide" x="317.342" y="-156.489">A</text>
      <text class="nucleotide" x="305.617" y="-145.539">G</text>
      <text class="nucleotide" x="298.836" y="-148.274">G</text>
      <text class="nucleotide" x="290.564" y="-144.660">U</text>
      <text class="nucleotide" x="283.768" y="-147.360">A</text>
      <text class="nucleotide" x="275.515" y="-143.702">U</text>
      <text class="nucleotide" x="260.547" y="-142.710">U</text>
      <text class="nucleotide" x="245.508" y="-112.829">U</text>
      <text class="nucleotide" x="230.516" y="-112.313">U</text>
      <text class="nucleotide" x="223.795" y="-115.191">U</text>
      <text class="nucleotide" x="215.447" y="-111.754">A</text>
      <text class="nucleotide" x="200.459" y="-111.158">A</text>
      <text class="nucleotide" x="185.471" y="-110.562">A</text>
      <text class="nucleotide" x="170.483" y="-109.966">A</text>
      <text class="nucleotide" x="158.136" y="-118.485">G</text>
      <text class="nucleotide" x="153.373" y="-132.708">G</text>
      <text class="nucleotide" x="148.647" y="-146.944">G</text>
      <text class="nucleotide" x="149.911" y="-151.452">A</text>
      <text class="nucleotide" x="148.429" y="-156.803">U</text>
      <text class="nucleotide" x="143.833" y="-161.318">G</text>
      <text class="nucleotide" x="138.994" y="-175.517">A</text>
      <text class="nucleotide" x="134.155" y="-189.715">A</text>
      <text class="nucleotide" x="129.316" y="-203.913">G</text>
      <text class="nucleotide" x="124.478" y="-218.111">A</text>
      <text class="nucleotide" x="119.714" y="-232.334">G</text>
      <text class="nucleotide" x="115.026" y="-246.583">A</text>
      <text class="nucleotide" x="110.338" y="-260.831">G</text>
      <text class="nucleotide" x="113.064" y="-275.582">U</text>
      <text class="nucleotide" x="122.536" y="-287.213">U</text>
      <text class="nucleotide" x="128.415" y="-289.850">G</text>
      <text class="nucleotide" x="131.664" y="-294.352">C</text>
      <text class="nucleotide" x="132.045" y="-299.018">U</text>
      <text class="nucleotide" x="141.393" y="-310.749">U</text>
      <text class="nucleotide" x="150.741" y="-322.480">C</text>
      <text class="nucleotide" x="160.089" y="-334.211">A</text>
      <text class="nucleotide" x="169.468" y="-345.917">A</text>
      <text class="nucleotide" x="178.909" y="-357.574">A</text>
      <text class="nucleotide" x="188.381" y="-369.205">U</text>
      <text class="nucleotide" x="196.140" y="-373.819">G</text>
      <text class="nucleotide" x="197.871" y="-380.923">U</text>
      <text class="nucleotide" x="207.281" y="-392.604">U</text>
      <text class="nucleotide" x="216.691" y="-404.286">U</text>
      <text class="nucleotide" x="226.132" y="-415.942">U</text>
      <text class="nucleotide" x="233.891" y="-420.556">G</text>
      <text class="nucleotide" x="235.623" y="-427.660">A</text>
      <text class="nucleotide" x="243.358" y="-432.315">G</text>
      <text class="nucleotide" x="245.052" y="-439.428">A</text>
      <text class="nucleotide" x="278.624" y="-437.712">C</text>
      <text class="nucleotide" x="286.595" y="-441.951">G</text>
      <text class="nucleotide" x="288.663" y="-448.964">U</text>
      <text class="nucleotide" x="298.619" y="-460.184">U</text>
      <text class="nucleotide" x="308.575" y="-471.403">G</text>
      <text class="nucleotide" x="318.531" y="-482.623">U</text>
      <text class="nucleotide" x="328.487" y="-493.842">U</text>
      <text class="nucleotide" x="338.473" y="-505.035">A</text>
      <text class="nucleotide" x="348.576" y="-516.122">U</text>
      <text class="nucleotide" x="358.797" y="-527.101">U</text>
      <text class="nucleotide" x="369.047" y="-538.053">U</text>
      <text class="nucleotide" x="379.296" y="-549.005">U</text>
      <text class="nucleotide" x="389.575" y="-559.930">U</text>
      <text class="nucleotide" x="399.911" y="-570.800">A</text>
      <text class="nucleotide" x="410.305" y="-581.615">A</text>
      <text class="nucleotide" x="420.727" y="-592.403">U</text>
      <text class="nucleotide" x="431.150" y="-603.190">A</text>
      <text class="nucleotide" x="441.572" y="-613.978">U</text>
      <text class="nucleotide" x="449.694" y="-617.919">G</text>
      <text class="nucleotide" x="452.021" y="-624.851">U</text>
      <text class="nucleotide" x="467.963" y="-626.648">G</text>
      <text class="nucleotide" x="476.375" y="-640.308">A</text>
      <text class="nucleotide" x="470.805" y="-655.353">G</text>
      <text class="nucleotide" x="455.524" y="-660.241">U</text>
      <text class="nucleotide" x="442.256" y="-651.222">G</text>
      <text class="nucleotide" x="441.178" y="-635.216">A</text>
      <text class="nucleotide" x="430.785" y="-624.400">A</text>
      <text class="nucleotide" x="420.362" y="-613.613">U</text>
      <text class="nucleotide" x="409.940" y="-602.825">A</text>
      <text class="nucleotide" x="399.517" y="-592.037">U</text>
      <text class="nucleotide" x="392.683" y="-589.437">C</text>
      <text class="nucleotide" x="389.069" y="-581.165">U</text>
      <text class="nucleotide" x="382.248" y="-578.528">U</text>
      <text class="nucleotide" x="378.677" y="-570.237">A</text>
      <text class="nucleotide" x="371.871" y="-567.565">G</text>
      <text class="nucleotide" x="368.344" y="-559.255">A</text>
      <text class="nucleotide" x="358.095" y="-548.303">A</text>
      <text class="nucleotide" x="347.845" y="-537.351">A</text>
      <text class="nucleotide" x="341.053" y="-534.642">C</text>
      <text class="nucleotide" x="337.570" y="-526.314">A</text>
      <text class="nucleotide" x="334.183" y="-525.786">A</text>
      <text class="nucleotide" x="330.867" y="-523.652">A</text>
      <text class="nucleotide" x="328.347" y="-519.955">A</text>
      <text class="nucleotide" x="327.306" y="-515.051">U</text>
      <text class="nucleotide" x="320.573" y="-512.199">G</text>
      <text class="nucleotide" x="317.267" y="-503.798">A</text>
      <text class="nucleotide" x="307.311" y="-492.579">A</text>
      <text class="nucleotide" x="297.355" y="-481.359">C</text>
      <text class="nucleotide" x="287.399" y="-470.140">A</text>
      <text class="nucleotide" x="277.443" y="-458.920">A</text>
      <text class="nucleotide" x="267.458" y="-447.727">G</text>
      <text class="nucleotide" x="254.804" y="-455.782">A</text>
      <text class="nucleotide" x="260.682" y="-469.582">A</text>
      <text class="nucleotide" x="266.858" y="-476.166">A</text>
      <text class="nucleotide" x="266.554" y="-483.471">U</text>
      <text class="nucleotide" x="279.930" y="-492.958">A</text>
      <text class="nucleotide" x="278.134" y="-509.258">A</text>
      <text class="nucleotide" x="263.012" y="-515.604">A</text>
      <text class="nucleotide" x="250.121" y="-505.468">A</text>
      <text class="nucleotide" x="252.722" y="-489.276">A</text>
      <text class="nucleotide" x="246.881" y="-475.460">U</text>
      <text class="nucleotide" x="241.003" y="-461.659">U</text>
      <text class="nucleotide" x="233.321" y="-448.776">U</text>
      <text class="nucleotide" x="223.942" y="-437.070">U</text>
      <text class="nucleotide" x="214.501" y="-425.414">A</text>
      <text class="nucleotide" x="207.912" y="-422.244">G</text>
      <text class="nucleotide" x="205.010" y="-413.696">A</text>
      <text class="nucleotide" x="195.600" y="-402.014">A</text>
      <text class="nucleotide" x="186.190" y="-390.333">A</text>
      <text class="nucleotide" x="176.749" y="-378.677">A</text>
      <text class="nucleotide" x="167.278" y="-367.045">U</text>
      <text class="nucleotide" x="160.688" y="-363.876">A</text>
      <text class="nucleotide" x="157.787" y="-355.327">U</text>
      <text class="nucleotide" x="151.214" y="-352.123">A</text>
      <text class="nucleotide" x="148.358" y="-343.559">U</text>
      <text class="nucleotide" x="139.010" y="-331.828">G</text>
      <text class="nucleotide" x="129.662" y="-320.097">A</text>
      <text class="nucleotide" x="120.314" y="-308.366">A</text>
      <text class="nucleotide" x="110.905" y="-296.685">A</text>
      <text class="nucleotide" x="101.433" y="-285.053">A</text>
      <text class="nucleotide" x="86.483" y="-283.823">A</text>
      <text class="nucleotide" x="75.264" y="-293.779">A</text>
      <text class="nucleotide" x="64.071" y="-303.765">A</text>
      <text class="nucleotide" x="52.904" y="-313.780">A</text>
      <text class="nucleotide" x="41.791" y="-323.854">A</text>
      <text class="nucleotide" x="30.704" y="-333.958">A</text>
      <text class="nucleotide" x="19.617" y="-344.062">A</text>
      <text class="nucleotide" x="8.530" y="-354.165">A</text>
      <text class="nucleotide" x="-2.476" y="-364.357">A</text>
      <text class="nucleotide" x="-13.400" y="-374.635">A</text>
      <text class="nucleotide" x="-24.325" y="-384.914">A</text>
      <text class="nucleotide" x="-35.223" y="-395.222">A</text>
      <text class="nucleotide" x="-46.038" y="-405.615">A</text>
      <text class="nucleotide" x="-56.798" y="-416.066">A</text>
    </g>
  </g>
</svg>
