<?xml version="1.0" encoding="UTF-8" standalone="yes" ?>
<svg xmlns="http://www.w3.org/2000/svg" height="452" width="452">
  <script type="text/ecmascript">
    <![CDATA[
      var shown = 1;
      function click() {
        var seq = document.getElementById("seq");
        if (shown==1) {
          seq.setAttribute("style", "visibility: hidden");
          shown = 0;
        } else {
          seq.setAttribute("style", "visibility: visible");
          shown = 1;
        }
      }
    ]]>
  </script>
  <style type="text/css">
    <![CDATA[
      .nucleotide {
        font-family: SansSerif;
      }
      .backbone {
        stroke: grey;
        fill:   none;
        stroke-width: 1.5;
      }
      .basepairs {
        stroke: red;
        fill:   none;
        stroke-width: 2.5;
      }
    ]]>
  </style>

  <rect style="stroke: white; fill: white" height="452" x="0" y="0" width="452" onclick="click(evt)" />
  <g transform="scale(1.930898,1.930898) translate(11.852310,78.031960)">
    <polyline class="backbone" id="outline" points="
      90.342,-70.532
      79.044,-57.890
      88.065,-43.535
      90.991,-28.823
      93.192,-13.986
      94.662,0.942
      96.133,15.870
      97.603,30.798
      99.073,45.725
      100.543,60.653
      102.014,75.581
      103.484,90.509
      104.954,105.436
      106.424,120.364
      99.167,135.070
      108.498,148.556
      124.818,146.949
      131.339,131.902
      121.352,118.894
      119.882,103.966
      118.412,89.038
      116.941,74.111
      115.471,59.183
      114.001,44.255
      112.531,29.327
      111.060,14.400
      109.590,-0.528
      108.120,-15.456
      110.683,-23.953
      105.703,-31.750
      102.776,-46.461
    " />
    <g id="pairs">
      <line class="basepairs" id="3,31" x1="88.06469" y1="-43.53514" x2="102.77647" y2="-46.46149" />
      <line class="basepairs" id="4,30" x1="90.99104" y1="-28.82336" x2="105.70282" y2="-31.74972" />
      <line class="basepairs" id="5,28" x1="93.19200" y1="-13.98571" x2="108.11977" y2="-15.45597" />
      <line class="basepairs" id="6,27" x1="94.66226" y1="0.94205" x2="109.59003" y2="-0.52820" />
      <line class="basepairs" id="7,26" x1="96.13251" y1="15.86983" x2="111.06029" y2="14.39957" />
      <line class="basepairs" id="8,25" x1="97.60278" y1="30.79760" x2="112.53054" y2="29.32734" />
      <line class="basepairs" id="9,24" x1="99.07303" y1="45.72537" x2="114.00080" y2="44.25511" />
      <line class="basepairs" id="10,23" x1="100.54329" y1="60.65314" x2="115.47105" y2="59.18288" />
      <line class="basepairs" id="11,22" x1="102.01354" y1="75.58091" x2="116.94131" y2="74.11066" />
      <line class="basepairs" id="12,21" x1="103.48380" y1="90.50868" x2="118.41158" y2="89.03843" />
      <line class="basepairs" id="13,20" x1="104.95406" y1="105.43645" x2="119.88183" y2="103.96619" />
      <line class="basepairs" id="14,19" x1="106.42432" y1="120.36423" x2="121.35209" y2="118.89397" />
    </g>
    <g transform="translate(-4.6, 4)" id="seq">
      <text class="nucleotide" x="90.342" y="-70.532">A</text>
      <text class="nucleotide" x="79.044" y="-57.890">A</text>
      <text class="nucleotide" x="88.065" y="-43.535">U</text>
      <text class="nucleotide" x="90.991" y="-28.823">C</text>
      <text class="nucleotide" x="93.192" y="-13.986">G</text>
      <text class="nucleotide" x="94.662" y="0.942">U</text>
      <text class="nucleotide" x="96.133" y="15.870">A</text>
      <text class="nucleotide" x="97.603" y="30.798">G</text>
      <text class="nucleotide" x="99.073" y="45.725">C</text>
      <text class="nucleotide" x="100.543" y="60.653">U</text>
      <text class="nucleotide" x="102.014" y="75.581">A</text>
      <text class="nucleotide" x="103.484" y="90.509">G</text>
      <text class="nucleotide" x="104.954" y="105.436">C</text>
      <text class="nucleotide" x="106.424" y="120.364">U</text>
      <text class="nucleotide" x="99.167" y="135.070">A</text>
      <text class="nucleotide" x="108.498" y="148.556">G</text>
      <text class="nucleotide" x="124.818" y="146.949">C</text>
      <text class="nucleotide" x="131.339" y="131.902">U</text>
      <text class="nucleotide" x="121.352" y="118.894">A</text>
      <text class="nucleotide" x="119.882" y="103.966">G</text>
      <text class="nucleotide" x="118.412" y="89.038">C</text>
      <text class="nucleotide" x="116.941" y="74.111">U</text>
      <text class="nucleotide" x="115.471" y="59.183">A</text>
      <text class="nucleotide" x="114.001" y="44.255">G</text>
      <text class="nucleotide" x="112.531" y="29.327">C</text>
      <text class="nucleotide" x="111.060" y="14.400">U</text>
      <text class="nucleotide" x="109.590" y="-0.528">A</text>
      <text class="nucleotide" x="108.120" y="-15.456">C</text>
      <text class="nucleotide" x="110.683" y="-23.953">U</text>
      <text class="nucleotide" x="105.703" y="-31.750">G</text>
      <text class="nucleotide" x="102.776" y="-46.461">A</text>
    </g>
  </g>
</svg>
