<?xml version="1.0" encoding="UTF-8" standalone="yes" ?>
<svg xmlns="http://www.w3.org/2000/svg" height="452" width="452">
  <script type="text/ecmascript">
    <![CDATA[
      var shown = 1;
      function click() {
        var seq = document.getElementById("seq");
        if (shown==1) {
          seq.setAttribute("style", "visibility: hidden");
          shown = 0;
        } else {
          seq.setAttribute("style", "visibility: visible");
          shown = 1;
        }
      }
    ]]>
  </script>
  <style type="text/css">
    <![CDATA[
      .nucleotide {
        font-family: SansSerif;
      }
      .backbone {
        stroke: grey;
        fill:   none;
        stroke-width: 1.5;
      }
      .basepairs {
        stroke: red;
        fill:   none;
        stroke-width: 2.5;
      }
    ]]>
  </style>

  <rect style="stroke: white; fill: white" height="452" x="0" y="0" width="452" onclick="click(evt)" />
  <g transform="scale(2.595648,2.595648) translate(-7.349453,-25.085098)">
    <polyline class="backbone" id="outline" points="
      76.854,32.585
      67.017,44.955
      68.892,60.648
      81.366,70.353
      78.684,78.092
      84.055,86.758
      87.280,101.407
      90.504,116.057
      92.126,130.969
      88.743,140.587
      93.026,147.569
      90.703,157.496
      95.716,163.974
      90.248,179.435
      101.107,191.723
      117.123,188.197
      121.819,172.485
      110.365,160.749
      107.938,145.947
      107.126,130.969
      110.622,125.569
      110.127,118.573
      105.154,112.832
      101.929,98.183
      98.704,83.534
      96.278,68.731
      106.373,56.572
      104.831,40.843
    " />
    <g id="pairs">
      <line class="basepairs" id="4,26" x1="81.36565" y1="70.35300" x2="96.27773" y2="68.73122" />
      <line class="basepairs" id="6,25" x1="84.05515" y1="86.75816" x2="98.70445" y2="83.53362" />
      <line class="basepairs" id="7,24" x1="87.27970" y1="101.40747" x2="101.92901" y2="98.18291" />
      <line class="basepairs" id="8,23" x1="90.50426" y1="116.05678" x2="105.15356" y2="112.83222" />
      <line class="basepairs" id="9,20" x1="92.12605" y1="130.96884" x2="107.12605" y2="130.96884" />
      <line class="basepairs" id="11,19" x1="93.02606" y1="147.56863" x2="107.93813" y2="145.94685" />
      <line class="basepairs" id="13,18" x1="95.71555" y1="163.97380" x2="110.36486" y2="160.74925" />
    </g>
    <g transform="translate(-4.6, 4)" id="seq">
      <text class="nucleotide" x="76.854" y="32.585">A</text>
      <text class="nucleotide" x="67.017" y="44.955">U</text>
      <text class="nucleotide" x="68.892" y="60.648">G</text>
      <text class="nucleotide" x="81.366" y="70.353">C</text>
      <text class="nucleotide" x="78.684" y="78.092">G</text>
      <text class="nucleotide" x="84.055" y="86.758">C</text>
      <text class="nucleotide" x="87.280" y="101.407">U</text>
      <text class="nucleotide" x="90.504" y="116.057">G</text>
      <text class="nucleotide" x="92.126" y="130.969">A</text>
      <text class="nucleotide" x="88.743" y="140.587">C</text>
      <text class="nucleotide" x="93.026" y="147.569">A</text>
      <text class="nucleotide" x="90.703" y="157.496">C</text>
      <text class="nucleotide" x="95.716" y="163.974">A</text>
      <text class="nucleotide" x="90.248" y="179.435">C</text>
      <text class="nucleotide" x="101.107" y="191.723">A</text>
      <text class="nucleotide" x="117.123" y="188.197">C</text>
      <text class="nucleotide" x="121.819" y="172.485">U</text>
      <text class="nucleotide" x="110.365" y="160.749">U</text>
      <text class="nucleotide" x="107.938" y="145.947">U</text>
      <text class="nucleotide" x="107.126" y="130.969">U</text>
      <text class="nucleotide" x="110.622" y="125.569">G</text>
      <text class="nucleotide" x="110.127" y="118.573">A</text>
      <text class="nucleotide" x="105.154" y="112.832">C</text>
      <text class="nucleotide" x="101.929" y="98.183">A</text>
      <text class="nucleotide" x="98.704" y="83.534">G</text>
      <text class="nucleotide" x="96.278" y="68.731">G</text>
      <text class="nucleotide" x="106.373" y="56.572">G</text>
      <text class="nucleotide" x="104.831" y="40.843">G</text>
    </g>
  </g>
</svg>
