<?xml version="1.0" encoding="UTF-8" standalone="yes" ?>
<svg xmlns="http://www.w3.org/2000/svg" height="452" width="452">
  <script type="text/ecmascript">
    <![CDATA[
      var shown = 1;
      function click() {
        var seq = document.getElementById("seq");
        if (shown==1) {
          seq.setAttribute("style", "visibility: hidden");
          shown = 0;
        } else {
          seq.setAttribute("style", "visibility: visible");
          shown = 1;
        }
      }
    ]]>
  </script>
  <style type="text/css">
    <![CDATA[
      .nucleotide {
        font-family: SansSerif;
      }
      .backbone {
        stroke: grey;
        fill:   none;
        stroke-width: 1.5;
      }
      .basepairs {
        stroke: red;
        fill:   none;
        stroke-width: 2.5;
      }
    ]]>
  </style>

  <rect style="stroke: white; fill: white" height="452" x="0" y="0" width="452" onclick="click(evt)" />
  <g transform="scale(0.849293,0.849293) translate(272.459229,136.546799)">
    <polyline class="backbone" id="outline" points="
      135.333,24.360
      144.079,38.437
      156.468,43.235
      149.595,56.567
      142.721,69.900
      136.835,74.425
      135.847,83.552
      129.228,97.013
      122.610,110.474
      114.987,123.393
      106.403,135.694
      97.586,147.829
      85.795,157.101
      72.034,163.072
      58.274,169.042
      44.513,175.012
      30.752,180.983
      16.992,186.953
      -4.583,178.605
      -24.353,196.576
      -39.352,196.718
      -54.352,196.861
      -69.352,196.861
      -84.349,196.576
      -99.343,196.147
      -107.877,192.761
      -114.626,195.856
      -129.623,195.571
      -139.056,186.731
      -151.583,186.707
      -160.460,194.966
      -169.057,191.743
      -175.746,194.966
      -180.367,192.349
      -185.057,191.848
      -188.989,193.127
      -191.591,195.570
      -206.558,196.569
      -215.374,194.009
      -221.799,197.732
      -236.744,199.015
      -251.358,191.575
      -264.959,200.736
      -263.556,217.075
      -248.592,223.784
      -235.460,213.960
      -220.515,212.677
      -205.559,211.535
      -190.592,210.536
      -175.603,209.965
      -160.603,209.965
      -146.020,219.693
      -130.051,210.565
      -123.425,213.914
      -114.769,210.856
      -99.771,211.141
      -84.777,211.569
      -78.151,214.919
      -69.495,211.860
      -62.806,215.083
      -54.209,211.860
      -39.210,211.718
      -24.210,211.575
      -15.394,223.710
      -20.164,237.931
      -24.911,242.639
      -26.320,248.203
      -24.835,252.785
      -29.061,267.178
      -33.287,281.570
      -37.513,295.963
      -41.876,310.314
      -54.317,320.998
      -51.019,337.062
      -35.375,341.981
      -23.478,330.695
      -27.566,314.813
      -22.537,309.351
      -23.121,300.189
      -18.895,285.796
      -14.669,271.404
      -10.443,257.011
      -5.943,242.702
      -1.172,228.481
      18.555,219.125
      22.962,200.714
      36.723,194.743
      50.483,188.773
      64.244,182.803
      78.005,176.832
      91.765,170.862
      106.569,173.279
      117.717,183.316
      128.864,193.353
      139.915,203.495
      150.869,213.743
      161.823,223.990
      172.777,234.238
      183.731,244.485
      194.685,254.732
      205.541,265.083
      209.488,281.001
      225.319,285.280
      236.748,273.520
      232.018,257.818
      215.995,254.326
      213.378,247.378
      204.932,243.778
      193.978,233.531
      183.024,223.283
      172.070,213.036
      161.116,202.789
      150.162,192.541
      147.413,185.644
      138.901,182.206
      127.753,172.169
      116.606,162.132
      113.340,158.777
      109.551,156.875
      115.548,153.922
      118.654,149.095
      118.704,144.278
      127.288,131.977
      134.794,140.114
      147.420,143.947
      161.231,152.110
      176.172,146.268
      180.782,130.901
      171.524,117.799
      155.501,117.012
      145.003,129.143
      136.071,117.093
      142.689,103.632
      149.308,90.171
      156.054,76.773
      162.927,63.441
      169.801,50.108
      177.301,37.118
      185.410,24.499
      193.520,11.880
      201.629,-0.739
      210.096,-13.121
      217.708,-18.254
      218.963,-25.572
      226.475,-30.849
      227.590,-38.190
      235.939,-50.652
      250.886,-57.398
      252.248,-73.741
      238.624,-82.868
      224.028,-75.390
      223.477,-59.000
      215.128,-46.538
      206.662,-34.156
      197.961,-21.937
      194.508,-21.036
      191.331,-18.390
      189.257,-14.153
      189.011,-8.848
      180.901,3.771
      172.791,16.389
      164.682,29.008
      150.330,24.645
      152.887,5.433
    " />
    <g id="pairs">
      <line class="basepairs" id="1,163" x1="135.33305" y1="24.35985" x2="150.33034" y2="24.64543" />
      <line class="basepairs" id="3,137" x1="156.46812" y1="43.23485" x2="169.80066" y2="50.10825" />
      <line class="basepairs" id="4,136" x1="149.59473" y1="56.56737" x2="162.92726" y2="63.44077" />
      <line class="basepairs" id="5,135" x1="142.72133" y1="69.89990" x2="156.05386" y2="76.77330" />
      <line class="basepairs" id="7,134" x1="135.84673" y1="83.55235" x2="149.30769" y2="90.17067" />
      <line class="basepairs" id="8,133" x1="129.22841" y1="97.01332" x2="142.68938" y2="103.63164" />
      <line class="basepairs" id="9,132" x1="122.61008" y1="110.47430" x2="136.07106" y2="117.09262" />
      <line class="basepairs" id="10,123" x1="114.98676" y1="123.39270" x2="127.28767" y2="131.97684" />
      <line class="basepairs" id="11,122" x1="106.40262" y1="135.69360" x2="118.70354" y2="144.27774" />
      <line class="basepairs" id="12,119" x1="97.58584" y1="147.82886" x2="109.55103" y2="156.87509" />
      <line class="basepairs" id="13,91" x1="85.79504" y1="157.10126" x2="91.76537" y2="170.86189" />
      <line class="basepairs" id="14,90" x1="72.03440" y1="163.07156" x2="78.00472" y2="176.83221" />
      <line class="basepairs" id="15,89" x1="58.27376" y1="169.04190" x2="64.24408" y2="182.80254" />
      <line class="basepairs" id="16,88" x1="44.51312" y1="175.01221" x2="50.48344" y2="188.77286" />
      <line class="basepairs" id="17,87" x1="30.75248" y1="180.98254" x2="36.72280" y2="194.74318" />
      <line class="basepairs" id="18,86" x1="16.99184" y1="186.95285" x2="22.96216" y2="200.71350" />
      <line class="basepairs" id="20,63" x1="-24.35311" y1="196.57556" x2="-24.21031" y2="211.57489" />
      <line class="basepairs" id="21,62" x1="-39.35243" y1="196.71835" x2="-39.20963" y2="211.71768" />
      <line class="basepairs" id="22,61" x1="-54.35175" y1="196.86116" x2="-54.20895" y2="211.86047" />
      <line class="basepairs" id="23,59" x1="-69.35175" y1="196.86116" x2="-69.49454" y2="211.86047" />
      <line class="basepairs" id="24,57" x1="-84.34903" y1="196.57558" x2="-84.77737" y2="211.56946" />
      <line class="basepairs" id="25,56" x1="-99.34291" y1="196.14723" x2="-99.77126" y2="211.14111" />
      <line class="basepairs" id="27,55" x1="-114.62574" y1="195.85622" x2="-114.76853" y2="210.85553" />
      <line class="basepairs" id="28,53" x1="-129.62302" y1="195.57063" x2="-130.05136" y2="210.56451" />
      <line class="basepairs" id="31,51" x1="-160.46005" y1="194.96597" x2="-160.60286" y2="209.96530" />
      <line class="basepairs" id="33,50" x1="-175.74565" y1="194.96597" x2="-175.60286" y2="209.96530" />
      <line class="basepairs" id="37,49" x1="-191.59084" y1="195.56966" x2="-190.59198" y2="210.53636" />
      <line class="basepairs" id="38,48" x1="-206.55754" y1="196.56851" x2="-205.55869" y2="211.53522" />
      <line class="basepairs" id="40,47" x1="-221.79883" y1="197.73154" x2="-220.51520" y2="212.67651" />
      <line class="basepairs" id="41,46" x1="-236.74380" y1="199.01517" x2="-235.46017" y2="213.96014" />
      <line class="basepairs" id="64,84" x1="-15.39353" y1="223.71014" x2="-1.17246" y2="228.48099" />
      <line class="basepairs" id="65,83" x1="-20.16438" y1="237.93121" x2="-5.94331" y2="242.70207" />
      <line class="basepairs" id="68,82" x1="-24.83494" y1="252.78540" x2="-10.44255" y2="257.01138" />
      <line class="basepairs" id="69,81" x1="-29.06093" y1="267.17780" x2="-14.66854" y2="271.40378" />
      <line class="basepairs" id="70,80" x1="-33.28692" y1="281.57019" x2="-18.89452" y2="285.79617" />
      <line class="basepairs" id="71,79" x1="-37.51291" y1="295.96259" x2="-23.12051" y2="300.18857" />
      <line class="basepairs" id="72,77" x1="-41.87572" y1="310.31409" x2="-27.56639" y2="314.81335" />
      <line class="basepairs" id="92,117" x1="106.56935" y1="173.27890" x2="116.60632" y2="162.13173" />
      <line class="basepairs" id="93,116" x1="117.71653" y1="183.31586" x2="127.75349" y2="172.16870" />
      <line class="basepairs" id="94,115" x1="128.86369" y1="193.35281" x2="138.90067" y2="182.20566" />
      <line class="basepairs" id="95,113" x1="139.91481" y1="203.49545" x2="150.16219" y2="192.54138" />
      <line class="basepairs" id="96,112" x1="150.86888" y1="213.74281" x2="161.11624" y2="202.78876" />
      <line class="basepairs" id="97,111" x1="161.82294" y1="223.99019" x2="172.07031" y2="213.03613" />
      <line class="basepairs" id="98,110" x1="172.77699" y1="234.23755" x2="183.02437" y2="223.28349" />
      <line class="basepairs" id="99,109" x1="183.73106" y1="244.48492" x2="193.97842" y2="233.53085" />
      <line class="basepairs" id="100,108" x1="194.68512" y1="254.73228" x2="204.93248" y2="243.77823" />
      <line class="basepairs" id="101,106" x1="205.54112" y1="265.08347" x2="215.99519" y2="254.32649" />
      <line class="basepairs" id="125,131" x1="147.41998" y1="143.94739" x2="145.00298" y2="129.14339" />
      <line class="basepairs" id="138,162" x1="177.30066" y1="37.11786" x2="164.68185" y2="29.00826" />
      <line class="basepairs" id="139,161" x1="185.41026" y1="24.49905" x2="172.79146" y2="16.38945" />
      <line class="basepairs" id="140,160" x1="193.51988" y1="11.88025" x2="180.90108" y2="3.77065" />
      <line class="basepairs" id="141,159" x1="201.62949" y1="-0.73856" x2="189.01068" y2="-8.84818" />
      <line class="basepairs" id="142,155" x1="210.09615" y1="-13.12064" x2="197.96089" y2="-21.93741" />
      <line class="basepairs" id="144,154" x1="218.96266" y1="-25.57190" x2="206.66174" y2="-34.15604" />
      <line class="basepairs" id="146,153" x1="227.59050" y1="-38.18973" x2="215.12839" y2="-46.53812" />
      <line class="basepairs" id="147,152" x1="235.93889" y1="-50.65186" x2="223.47678" y2="-59.00024" />
    </g>
    <g transform="translate(-4.6, 4)" id="seq">
      <text class="nucleotide" x="135.333" y="24.360">A</text>
      <text class="nucleotide" x="144.079" y="38.437">U</text>
      <text class="nucleotide" x="156.468" y="43.235">A</text>
      <text class="nucleotide" x="149.595" y="56.567">C</text>
      <text class="nucleotide" x="142.721" y="69.900">U</text>
      <text class="nucleotide" x="136.835" y="74.425">U</text>
      <text class="nucleotide" x="135.847" y="83.552">A</text>
      <text class="nucleotide" x="129.228" y="97.013">C</text>
      <text class="nucleotide" x="122.610" y="110.474">C</text>
      <text class="nucleotide" x="114.987" y="123.393">U</text>
      <text class="nucleotide" x="106.403" y="135.694">G</text>
      <text class="nucleotide" x="97.586" y="147.829">G</text>
      <text class="nucleotide" x="85.795" y="157.101">C</text>
      <text class="nucleotide" x="72.034" y="163.072">A</text>
      <text class="nucleotide" x="58.274" y="169.042">G</text>
      <text class="nucleotide" x="44.513" y="175.012">G</text>
      <text class="nucleotide" x="30.752" y="180.983">G</text>
      <text class="nucleotide" x="16.992" y="186.953">G</text>
      <text class="nucleotide" x="-4.583" y="178.605">A</text>
      <text class="nucleotide" x="-24.353" y="196.576">G</text>
      <text class="nucleotide" x="-39.352" y="196.718">A</text>
      <text class="nucleotide" x="-54.352" y="196.861">U</text>
      <text class="nucleotide" x="-69.352" y="196.861">A</text>
      <text class="nucleotide" x="-84.349" y="196.576">C</text>
      <text class="nucleotide" x="-99.343" y="196.147">C</text>
      <text class="nucleotide" x="-107.877" y="192.761">A</text>
      <text class="nucleotide" x="-114.626" y="195.856">U</text>
      <text class="nucleotide" x="-129.623" y="195.571">G</text>
      <text class="nucleotide" x="-139.056" y="186.731">A</text>
      <text class="nucleotide" x="-151.583" y="186.707">U</text>
      <text class="nucleotide" x="-160.460" y="194.966">C</text>
      <text class="nucleotide" x="-169.057" y="191.743">A</text>
      <text class="nucleotide" x="-175.746" y="194.966">C</text>
      <text class="nucleotide" x="-180.367" y="192.349">G</text>
      <text class="nucleotide" x="-185.057" y="191.848">A</text>
      <text class="nucleotide" x="-188.989" y="193.127">A</text>
      <text class="nucleotide" x="-191.591" y="195.570">U</text>
      <text class="nucleotide" x="-206.558" y="196.569">G</text>
      <text class="nucleotide" x="-215.374" y="194.009">U</text>
      <text class="nucleotide" x="-221.799" y="197.732">G</text>
      <text class="nucleotide" x="-236.744" y="199.015">G</text>
      <text class="nucleotide" x="-251.358" y="191.575">U</text>
      <text class="nucleotide" x="-264.959" y="200.736">U</text>
      <text class="nucleotide" x="-263.556" y="217.075">U</text>
      <text class="nucleotide" x="-248.592" y="223.784">U</text>
      <text class="nucleotide" x="-235.460" y="213.960">C</text>
      <text class="nucleotide" x="-220.515" y="212.677">C</text>
      <text class="nucleotide" x="-205.559" y="211.535">C</text>
      <text class="nucleotide" x="-190.592" y="210.536">A</text>
      <text class="nucleotide" x="-175.603" y="209.965">G</text>
      <text class="nucleotide" x="-160.603" y="209.965">G</text>
      <text class="nucleotide" x="-146.020" y="219.693">G</text>
      <text class="nucleotide" x="-130.051" y="210.565">C</text>
      <text class="nucleotide" x="-123.425" y="213.914">G</text>
      <text class="nucleotide" x="-114.769" y="210.856">A</text>
      <text class="nucleotide" x="-99.771" y="211.141">G</text>
      <text class="nucleotide" x="-84.777" y="211.569">G</text>
      <text class="nucleotide" x="-78.151" y="214.919">C</text>
      <text class="nucleotide" x="-69.495" y="211.860">U</text>
      <text class="nucleotide" x="-62.806" y="215.083">U</text>
      <text class="nucleotide" x="-54.209" y="211.860">A</text>
      <text class="nucleotide" x="-39.210" y="211.718">U</text>
      <text class="nucleotide" x="-24.210" y="211.575">C</text>
      <text class="nucleotide" x="-15.394" y="223.710">C</text>
      <text class="nucleotide" x="-20.164" y="237.931">A</text>
      <text class="nucleotide" x="-24.911" y="242.639">U</text>
      <text class="nucleotide" x="-26.320" y="248.203">U</text>
      <text class="nucleotide" x="-24.835" y="252.785">G</text>
      <text class="nucleotide" x="-29.061" y="267.178">C</text>
      <text class="nucleotide" x="-33.287" y="281.570">A</text>
      <text class="nucleotide" x="-37.513" y="295.963">C</text>
      <text class="nucleotide" x="-41.876" y="310.314">U</text>
      <text class="nucleotide" x="-54.317" y="320.998">C</text>
      <text class="nucleotide" x="-51.019" y="337.062">C</text>
      <text class="nucleotide" x="-35.375" y="341.981">G</text>
      <text class="nucleotide" x="-23.478" y="330.695">G</text>
      <text class="nucleotide" x="-27.566" y="314.813">A</text>
      <text class="nucleotide" x="-22.537" y="309.351">U</text>
      <text class="nucleotide" x="-23.121" y="300.189">G</text>
      <text class="nucleotide" x="-18.895" y="285.796">U</text>
      <text class="nucleotide" x="-14.669" y="271.404">G</text>
      <text class="nucleotide" x="-10.443" y="257.011">C</text>
      <text class="nucleotide" x="-5.943" y="242.702">U</text>
      <text class="nucleotide" x="-1.172" y="228.481">G</text>
      <text class="nucleotide" x="18.555" y="219.125">A</text>
      <text class="nucleotide" x="22.962" y="200.714">C</text>
      <text class="nucleotide" x="36.723" y="194.743">C</text>
      <text class="nucleotide" x="50.483" y="188.773">C</text>
      <text class="nucleotide" x="64.244" y="182.803">C</text>
      <text class="nucleotide" x="78.005" y="176.832">U</text>
      <text class="nucleotide" x="91.765" y="170.862">G</text>
      <text class="nucleotide" x="106.569" y="173.279">C</text>
      <text class="nucleotide" x="117.717" y="183.316">G</text>
      <text class="nucleotide" x="128.864" y="193.353">A</text>
      <text class="nucleotide" x="139.915" y="203.495">U</text>
      <text class="nucleotide" x="150.869" y="213.743">U</text>
      <text class="nucleotide" x="161.823" y="223.990">U</text>
      <text class="nucleotide" x="172.777" y="234.238">C</text>
      <text class="nucleotide" x="183.731" y="244.485">C</text>
      <text class="nucleotide" x="194.685" y="254.732">C</text>
      <text class="nucleotide" x="205.541" y="265.083">C</text>
      <text class="nucleotide" x="209.488" y="281.001">A</text>
      <text class="nucleotide" x="225.319" y="285.280">A</text>
      <text class="nucleotide" x="236.748" y="273.520">A</text>
      <text class="nucleotide" x="232.018" y="257.818">U</text>
      <text class="nucleotide" x="215.995" y="254.326">G</text>
      <text class="nucleotide" x="213.378" y="247.378">U</text>
      <text class="nucleotide" x="204.932" y="243.778">G</text>
      <text class="nucleotide" x="193.978" y="233.531">G</text>
      <text class="nucleotide" x="183.024" y="223.283">G</text>
      <text class="nucleotide" x="172.070" y="213.036">A</text>
      <text class="nucleotide" x="161.116" y="202.789">A</text>
      <text class="nucleotide" x="150.162" y="192.541">A</text>
      <text class="nucleotide" x="147.413" y="185.644">C</text>
      <text class="nucleotide" x="138.901" y="182.206">U</text>
      <text class="nucleotide" x="127.753" y="172.169">C</text>
      <text class="nucleotide" x="116.606" y="162.132">G</text>
      <text class="nucleotide" x="113.340" y="158.777">A</text>
      <text class="nucleotide" x="109.551" y="156.875">C</text>
      <text class="nucleotide" x="115.548" y="153.922">U</text>
      <text class="nucleotide" x="118.654" y="149.095">G</text>
      <text class="nucleotide" x="118.704" y="144.278">C</text>
      <text class="nucleotide" x="127.288" y="131.977">A</text>
      <text class="nucleotide" x="134.794" y="140.114">U</text>
      <text class="nucleotide" x="147.420" y="143.947">A</text>
      <text class="nucleotide" x="161.231" y="152.110">A</text>
      <text class="nucleotide" x="176.172" y="146.268">U</text>
      <text class="nucleotide" x="180.782" y="130.901">U</text>
      <text class="nucleotide" x="171.524" y="117.799">U</text>
      <text class="nucleotide" x="155.501" y="117.012">G</text>
      <text class="nucleotide" x="145.003" y="129.143">U</text>
      <text class="nucleotide" x="136.071" y="117.093">G</text>
      <text class="nucleotide" x="142.689" y="103.632">G</text>
      <text class="nucleotide" x="149.308" y="90.171">U</text>
      <text class="nucleotide" x="156.054" y="76.773">A</text>
      <text class="nucleotide" x="162.927" y="63.441">G</text>
      <text class="nucleotide" x="169.801" y="50.108">U</text>
      <text class="nucleotide" x="177.301" y="37.118">G</text>
      <text class="nucleotide" x="185.410" y="24.499">G</text>
      <text class="nucleotide" x="193.520" y="11.880">G</text>
      <text class="nucleotide" x="201.629" y="-0.739">G</text>
      <text class="nucleotide" x="210.096" y="-13.121">G</text>
      <text class="nucleotide" x="217.708" y="-18.254">A</text>
      <text class="nucleotide" x="218.963" y="-25.572">C</text>
      <text class="nucleotide" x="226.475" y="-30.849">U</text>
      <text class="nucleotide" x="227.590" y="-38.190">G</text>
      <text class="nucleotide" x="235.939" y="-50.652">C</text>
      <text class="nucleotide" x="250.886" y="-57.398">G</text>
      <text class="nucleotide" x="252.248" y="-73.741">U</text>
      <text class="nucleotide" x="238.624" y="-82.868">U</text>
      <text class="nucleotide" x="224.028" y="-75.390">C</text>
      <text class="nucleotide" x="223.477" y="-59.000">G</text>
      <text class="nucleotide" x="215.128" y="-46.538">C</text>
      <text class="nucleotide" x="206.662" y="-34.156">G</text>
      <text class="nucleotide" x="197.961" y="-21.937">C</text>
      <text class="nucleotide" x="194.508" y="-21.036">U</text>
      <text class="nucleotide" x="191.331" y="-18.390">U</text>
      <text class="nucleotide" x="189.257" y="-14.153">U</text>
      <text class="nucleotide" x="189.011" y="-8.848">C</text>
      <text class="nucleotide" x="180.901" y="3.771">C</text>
      <text class="nucleotide" x="172.791" y="16.389">C</text>
      <text class="nucleotide" x="164.682" y="29.008">C</text>
      <text class="nucleotide" x="150.330" y="24.645">U</text>
      <text class="nucleotide" x="152.887" y="5.433">G</text>
    </g>
  </g>
</svg>
