<?xml version="1.0" encoding="UTF-8" standalone="yes" ?>
<svg xmlns="http://www.w3.org/2000/svg" height="452" width="452">
  <script type="text/ecmascript">
    <![CDATA[
      var shown = 1;
      function click() {
        var seq = document.getElementById("seq");
        if (shown==1) {
          seq.setAttribute("style", "visibility: hidden");
          shown = 0;
        } else {
          seq.setAttribute("style", "visibility: visible");
          shown = 1;
        }
      }
    ]]>
  </script>
  <style type="text/css">
    <![CDATA[
      .nucleotide {
        font-family: SansSerif;
      }
      .backbone {
        stroke: grey;
        fill:   none;
        stroke-width: 1.5;
      }
      .basepairs {
        stroke: red;
        fill:   none;
        stroke-width: 2.5;
      }
    ]]>
  </style>

  <rect style="stroke: white; fill: white" height="452" x="0" y="0" width="452" onclick="click(evt)" />
  <g transform="scale(2.186765,2.186765) translate(6.380783,22.839325)">
    <polyline class="backbone" id="outline" points="
      81.000,7.934
      79.825,-8.423
      64.955,-15.339
      51.688,-5.700
      53.671,10.579
      68.865,16.751
      76.558,29.628
      83.066,43.142
      89.575,56.657
      95.470,70.450
      100.741,84.493
      106.011,98.537
      111.282,112.580
      114.620,127.204
      115.964,142.144
      106.828,155.331
      111.579,170.654
      126.574,176.359
      140.309,168.069
      142.248,152.143
      130.904,140.799
      129.559,125.859
      132.374,122.516
      133.134,117.339
      130.833,111.667
      125.325,107.310
      120.055,93.266
      114.784,79.222
      109.514,65.179
      109.806,56.393
      103.089,50.148
      96.581,36.634
      90.073,23.119
      90.219,15.122
    " />
    <g id="pairs">
      <line class="basepairs" id="1,6" x1="80.99989" y1="7.93407" x2="68.86463" y2="16.75085" />
      <line class="basepairs" id="7,33" x1="76.55812" y1="29.62758" x2="90.07265" y2="23.11932" />
      <line class="basepairs" id="8,32" x1="83.06638" y1="43.14212" x2="96.58091" y2="36.63386" />
      <line class="basepairs" id="9,31" x1="89.57463" y1="56.65665" x2="103.08916" y2="50.14839" />
      <line class="basepairs" id="10,29" x1="95.47001" y1="70.44957" x2="109.51353" y2="65.17895" />
      <line class="basepairs" id="11,28" x1="100.74063" y1="84.49309" x2="114.78416" y2="79.22247" />
      <line class="basepairs" id="12,27" x1="106.01125" y1="98.53661" x2="120.05478" y2="93.26599" />
      <line class="basepairs" id="13,26" x1="111.28188" y1="112.58014" x2="125.32540" y2="107.30951" />
      <line class="basepairs" id="14,22" x1="114.61969" y1="127.20406" x2="129.55931" y2="125.85947" />
      <line class="basepairs" id="15,21" x1="115.96428" y1="142.14368" x2="130.90390" y2="140.79907" />
    </g>
    <g transform="translate(-4.6, 4)" id="seq">
      <text class="nucleotide" x="81.000" y="7.934">A</text>
      <text class="nucleotide" x="79.825" y="-8.423">C</text>
      <text class="nucleotide" x="64.955" y="-15.339">A</text>
      <text class="nucleotide" x="51.688" y="-5.700">C</text>
      <text class="nucleotide" x="53.671" y="10.579">A</text>
      <text class="nucleotide" x="68.865" y="16.751">U</text>
      <text class="nucleotide" x="76.558" y="29.628">C</text>
      <text class="nucleotide" x="83.066" y="43.142">U</text>
      <text class="nucleotide" x="89.575" y="56.657">A</text>
      <text class="nucleotide" x="95.470" y="70.450">C</text>
      <text class="nucleotide" x="100.741" y="84.493">U</text>
      <text class="nucleotide" x="106.011" y="98.537">A</text>
      <text class="nucleotide" x="111.282" y="112.580">C</text>
      <text class="nucleotide" x="114.620" y="127.204">U</text>
      <text class="nucleotide" x="115.964" y="142.144">A</text>
      <text class="nucleotide" x="106.828" y="155.331">U</text>
      <text class="nucleotide" x="111.579" y="170.654">C</text>
      <text class="nucleotide" x="126.574" y="176.359">U</text>
      <text class="nucleotide" x="140.309" y="168.069">A</text>
      <text class="nucleotide" x="142.248" y="152.143">C</text>
      <text class="nucleotide" x="130.904" y="140.799">U</text>
      <text class="nucleotide" x="129.559" y="125.859">A</text>
      <text class="nucleotide" x="132.374" y="122.516">U</text>
      <text class="nucleotide" x="133.134" y="117.339">C</text>
      <text class="nucleotide" x="130.833" y="111.667">C</text>
      <text class="nucleotide" x="125.325" y="107.310">G</text>
      <text class="nucleotide" x="120.055" y="93.266">U</text>
      <text class="nucleotide" x="114.784" y="79.222">A</text>
      <text class="nucleotide" x="109.514" y="65.179">G</text>
      <text class="nucleotide" x="109.806" y="56.393">C</text>
      <text class="nucleotide" x="103.089" y="50.148">U</text>
      <text class="nucleotide" x="96.581" y="36.634">A</text>
      <text class="nucleotide" x="90.073" y="23.119">G</text>
      <text class="nucleotide" x="90.219" y="15.122">C</text>
    </g>
  </g>
</svg>
