<?xml version="1.0" encoding="UTF-8" standalone="yes" ?>
<svg xmlns="http://www.w3.org/2000/svg" height="452" width="452">
  <script type="text/ecmascript">
    <![CDATA[
      var shown = 1;
      function click() {
        var seq = document.getElementById("seq");
        if (shown==1) {
          seq.setAttribute("style", "visibility: hidden");
          shown = 0;
        } else {
          seq.setAttribute("style", "visibility: visible");
          shown = 1;
        }
      }
    ]]>
  </script>
  <style type="text/css">
    <![CDATA[
      .nucleotide {
        font-family: SansSerif;
      }
      .backbone {
        stroke: grey;
        fill:   none;
        stroke-width: 1.5;
      }
      .basepairs {
        stroke: red;
        fill:   none;
        stroke-width: 2.5;
      }
    ]]>
  </style>

  <rect style="stroke: white; fill: white" height="452" x="0" y="0" width="452" onclick="click(evt)" />
  <g transform="scale(0.546776,0.546776) translate(358.934082,256.168793)">
    <polyline class="backbone" id="outline" points="
      87.927,-220.401
      87.378,-205.412
      79.114,-193.019
      86.267,-178.907
      85.639,-163.921
      85.011,-148.934
      70.101,-147.288
      66.219,-161.777
      62.337,-176.265
      58.454,-190.754
      63.219,-206.446
      51.816,-218.232
      35.976,-213.987
      31.993,-198.079
      43.966,-186.872
      47.848,-172.383
      51.730,-157.894
      55.612,-143.405
      58.191,-128.629
      55.632,-121.734
      59.539,-113.532
      60.872,-98.591
      58.313,-91.696
      62.219,-83.494
      63.553,-68.553
      64.808,-53.606
      65.985,-38.652
      67.005,-23.687
      67.790,-8.707
      68.418,6.279
      54.813,12.595
      43.771,2.442
      32.730,-7.711
      21.742,-17.922
      10.807,-28.190
      6.720,-36.304
      -0.296,-38.508
      -4.681,-54.310
      -20.624,-58.151
      -31.724,-46.080
      -26.563,-30.514
      -10.449,-27.467
      0.539,-17.256
      11.473,-6.988
      14.185,-0.152
      22.577,3.330
      33.618,13.483
      44.660,23.636
      52.227,36.587
      55.653,51.191
      59.078,65.795
      62.503,80.398
      65.929,95.002
      69.354,109.606
      72.779,124.209
      76.204,138.813
      79.630,153.417
      82.978,168.038
      86.174,182.694
      82.991,222.192
      73.673,233.947
      65.930,238.699
      64.321,245.875
      55.127,257.727
      45.934,269.579
      38.240,274.412
      36.707,281.604
      27.638,293.552
      21.312,285.234
      10.187,280.148
      -4.810,280.462
      -19.807,280.776
      -34.803,281.090
      -47.331,271.069
      -62.945,274.755
      -69.667,289.322
      -62.341,303.595
      -46.586,306.624
      -34.489,296.087
      -19.492,295.773
      -4.496,295.459
      10.501,295.145
      18.271,307.975
      11.045,321.120
      -17.600,324.264
      -29.257,333.704
      -37.850,336.652
      -40.986,343.304
      -49.548,346.342
      -52.614,353.027
      -64.071,362.709
      -75.578,372.331
      -87.136,381.892
      -98.793,391.332
      -110.597,400.587
      -122.450,409.781
      -134.350,418.912
      -146.298,427.981
      -158.246,437.050
      -173.916,439.231
      -179.376,453.089
      -191.324,462.158
      -200.006,464.834
      -203.348,471.385
      -219.661,473.073
      -226.106,488.152
      -216.055,501.110
      -199.847,498.617
      -194.155,483.237
      -182.255,474.106
      -170.307,465.037
      -155.491,463.505
      -149.177,448.998
      -137.229,439.929
      -125.281,430.860
      -118.088,429.327
      -113.256,421.633
      -101.404,412.440
      -94.227,410.831
      -89.476,403.087
      -84.757,402.728
      -80.202,399.432
      -77.575,393.450
      -66.017,383.888
      -58.895,382.055
      -54.389,374.166
      -42.932,364.484
      -31.425,354.862
      -19.817,345.361
      -8.160,335.922
      5.311,342.521
      2.015,350.987
      5.073,357.676
      4.758,372.673
      4.287,387.665
      3.816,402.658
      3.345,417.650
      2.795,432.640
      -5.513,446.104
      1.684,459.144
      1.056,474.131
      -2.416,482.527
      0.501,489.278
      0.030,504.271
      -0.441,519.263
      -0.913,534.256
      -10.009,547.901
      -2.499,562.479
      13.892,562.994
      22.302,548.916
      14.080,534.727
      14.551,519.735
      15.022,504.742
      15.494,489.749
      16.043,474.759
      16.671,459.773
      24.935,447.380
      17.782,433.268
      21.185,426.749
      18.338,418.122
      18.809,403.129
      19.280,388.136
      19.751,373.144
      22.522,369.308
      22.945,363.701
      20.072,357.833
      20.307,342.835
      24.190,328.346
      31.416,315.201
      39.586,302.621
      48.655,290.673
      57.786,278.773
      66.980,266.921
      76.173,255.068
      85.429,243.264
      94.746,231.509
      109.509,228.853
      122.339,236.623
      135.170,244.393
      147.959,252.231
      160.582,260.335
      173.076,268.635
      185.570,276.936
      190.952,284.255
      198.238,285.258
      210.818,293.427
      223.355,301.663
      228.738,308.982
      236.024,309.984
      248.561,318.220
      261.055,326.521
      266.437,333.839
      273.723,334.842
      281.083,348.847
      295.971,349.290
      302.930,364.139
      319.290,365.268
      328.222,351.514
      320.536,337.027
      304.140,336.710
      297.680,323.289
      281.893,322.262
      269.355,314.027
      256.862,305.726
      253.048,299.438
      244.193,297.404
      231.656,289.169
      227.842,282.881
      218.988,280.847
      206.408,272.678
      193.871,264.442
      181.377,256.142
      168.883,247.841
      167.826,244.524
      165.137,241.543
      160.985,239.647
      155.864,239.483
      151.854,233.317
      142.940,231.563
      130.110,223.793
      117.279,216.022
      118.847,201.104
      133.013,196.171
      147.204,191.313
      161.421,186.528
      175.637,181.744
      184.719,181.976
      189.977,176.834
      204.168,171.975
      218.385,167.191
      232.601,162.407
      244.449,167.426
      256.171,163.183
      261.695,152.456
      275.861,147.523
      284.945,147.660
      290.148,142.463
      304.288,137.456
      319.300,143.116
      333.010,134.785
      334.901,118.854
      323.523,107.544
      307.604,109.531
      299.355,123.291
      292.040,122.526
      285.067,128.350
      270.928,133.357
      256.762,138.290
      239.701,134.095
      227.817,148.190
      213.600,152.975
      199.384,157.759
      192.078,156.918
      185.044,162.669
      170.853,167.527
      156.636,172.312
      142.420,177.096
      135.114,176.255
      128.080,182.006
      113.914,186.939
      100.846,179.575
      102.121,170.580
      97.617,164.766
      98.798,155.758
      94.233,149.991
      90.808,135.388
      87.383,120.784
      83.957,106.180
      80.532,91.577
      77.107,76.973
      73.682,62.369
      70.256,47.766
      66.831,33.162
      83.405,5.651
      82.777,-9.336
      85.465,-15.291
      84.866,-20.882
      81.976,-24.629
      84.551,-33.341
      80.945,-39.751
      83.429,-48.490
      79.755,-54.861
      78.500,-69.809
      80.893,-78.573
      77.153,-84.906
      75.819,-99.846
      78.212,-108.611
      74.472,-114.943
      73.139,-129.884
      99.998,-148.306
      100.626,-163.292
      101.254,-178.279
      109.562,-191.743
      102.365,-204.783
      105.837,-213.179
      102.920,-219.930
      112.017,-233.575
      104.507,-248.154
      88.116,-248.669
    " />
    <g id="pairs">
      <line class="basepairs" id="1,296" x1="87.92746" y1="-220.40149" x2="102.92005" y2="-219.93030" />
      <line class="basepairs" id="2,294" x1="87.37780" y1="-205.41156" x2="102.36464" y2="-204.78339" />
      <line class="basepairs" id="4,292" x1="86.26694" y1="-178.90738" x2="101.25379" y2="-178.27924" />
      <line class="basepairs" id="5,291" x1="85.63881" y1="-163.92053" x2="100.62566" y2="-163.29239" />
      <line class="basepairs" id="6,290" x1="85.01067" y1="-148.93369" x2="99.99752" y2="-148.30554" />
      <line class="basepairs" id="7,18" x1="70.10126" y1="-147.28766" x2="55.61237" y2="-143.40540" />
      <line class="basepairs" id="8,17" x1="66.21898" y1="-161.77655" x2="51.73009" y2="-157.89426" />
      <line class="basepairs" id="9,16" x1="62.33669" y1="-176.26544" x2="47.84781" y2="-172.38315" />
      <line class="basepairs" id="10,15" x1="58.45441" y1="-190.75433" x2="43.96552" y2="-186.87204" />
      <line class="basepairs" id="19,289" x1="58.19131" y1="-128.62875" x2="73.13870" y2="-129.88391" />
      <line class="basepairs" id="21,288" x1="59.53869" y1="-113.53168" x2="74.47212" y2="-114.94330" />
      <line class="basepairs" id="22,286" x1="60.87210" y1="-98.59106" x2="75.81950" y2="-99.84622" />
      <line class="basepairs" id="24,285" x1="62.21948" y1="-83.49399" x2="77.15291" y2="-84.90561" />
      <line class="basepairs" id="25,283" x1="63.55289" y1="-68.55338" x2="78.50029" y2="-69.80853" />
      <line class="basepairs" id="26,282" x1="64.80807" y1="-53.60596" x2="79.75546" y2="-54.86115" />
      <line class="basepairs" id="27,280" x1="65.98495" y1="-38.65222" x2="80.94466" y2="-39.75079" />
      <line class="basepairs" id="28,278" x1="67.00518" y1="-23.68695" x2="81.97558" y2="-24.62881" />
      <line class="basepairs" id="29,275" x1="67.79022" y1="-8.70749" x2="82.77706" y2="-9.33563" />
      <line class="basepairs" id="30,274" x1="68.41835" y1="6.27933" x2="83.40520" y2="5.65121" />
      <line class="basepairs" id="31,48" x1="54.81269" y1="12.59488" x2="44.65955" y2="23.63632" />
      <line class="basepairs" id="32,47" x1="43.77124" y1="2.44174" x2="33.61810" y2="13.48318" />
      <line class="basepairs" id="33,46" x1="32.72978" y1="-7.71140" x2="22.57664" y2="3.33005" />
      <line class="basepairs" id="34,44" x1="21.74164" y1="-17.92221" x2="11.47343" y2="-6.98770" />
      <line class="basepairs" id="35,43" x1="10.80711" y1="-28.19043" x2="0.53890" y2="-17.25589" />
      <line class="basepairs" id="37,42" x1="-0.29610" y1="-38.50815" x2="-10.44924" y2="-27.46671" />
      <line class="basepairs" id="49,273" x1="52.22747" y1="36.58728" x2="66.83115" y2="33.16199" />
      <line class="basepairs" id="50,272" x1="55.65273" y1="51.19095" x2="70.25642" y2="47.76569" />
      <line class="basepairs" id="51,271" x1="59.07800" y1="65.79463" x2="73.68168" y2="62.36937" />
      <line class="basepairs" id="52,270" x1="62.50326" y1="80.39832" x2="77.10694" y2="76.97305" />
      <line class="basepairs" id="53,269" x1="65.92852" y1="95.00200" x2="80.53220" y2="91.57674" />
      <line class="basepairs" id="54,268" x1="69.35378" y1="109.60568" x2="83.95747" y2="106.18042" />
      <line class="basepairs" id="55,267" x1="72.77905" y1="124.20937" x2="87.38273" y2="120.78410" />
      <line class="basepairs" id="56,266" x1="76.20431" y1="138.81305" x2="90.80799" y2="135.38779" />
      <line class="basepairs" id="57,265" x1="79.62957" y1="153.41673" x2="94.23325" y2="149.99147" />
      <line class="basepairs" id="58,263" x1="82.97832" y1="168.03815" x2="97.61707" y2="164.76601" />
      <line class="basepairs" id="59,261" x1="86.17378" y1="182.69383" x2="100.84599" y2="179.57516" />
      <line class="basepairs" id="60,176" x1="82.99053" y1="222.19171" x2="94.74593" y2="231.50893" />
      <line class="basepairs" id="61,175" x1="73.67332" y1="233.94711" x2="85.42872" y2="243.26433" />
      <line class="basepairs" id="63,174" x1="64.32085" y1="245.87476" x2="76.17318" y2="255.06836" />
      <line class="basepairs" id="64,173" x1="55.12725" y1="257.72708" x2="66.97958" y2="266.92068" />
      <line class="basepairs" id="65,172" x1="45.93364" y1="269.57941" x2="57.78597" y2="278.77301" />
      <line class="basepairs" id="67,171" x1="36.70660" y1="281.60431" x2="48.65455" y2="290.67331" />
      <line class="basepairs" id="68,170" x1="27.63761" y1="293.55228" x2="39.58556" y2="302.62125" />
      <line class="basepairs" id="70,82" x1="10.18683" y1="280.14783" x2="10.50097" y2="295.14453" />
      <line class="basepairs" id="71,81" x1="-4.80988" y1="280.46198" x2="-4.49574" y2="295.45868" />
      <line class="basepairs" id="72,80" x1="-19.80659" y1="280.77609" x2="-19.49245" y2="295.77283" />
      <line class="basepairs" id="73,79" x1="-34.80330" y1="281.09024" x2="-34.48916" y2="296.08694" />
      <line class="basepairs" id="83,169" x1="18.27138" y1="307.97501" x2="31.41598" y2="315.20132" />
      <line class="basepairs" id="84,168" x1="11.04507" y1="321.11960" x2="24.18967" y2="328.34592" />
      <line class="basepairs" id="85,130" x1="-17.59955" y1="324.26437" x2="-8.15974" y2="335.92157" />
      <line class="basepairs" id="86,129" x1="-29.25673" y1="333.70419" x2="-19.81693" y2="345.36139" />
      <line class="basepairs" id="88,128" x1="-40.98589" y1="343.30438" x2="-31.42453" y2="354.86209" />
      <line class="basepairs" id="90,127" x1="-52.61388" y1="353.02689" x2="-42.93201" y2="364.48383" />
      <line class="basepairs" id="91,126" x1="-64.07082" y1="362.70877" x2="-54.38895" y2="374.16571" />
      <line class="basepairs" id="92,124" x1="-75.57829" y1="372.33051" x2="-66.01693" y2="383.88821" />
      <line class="basepairs" id="93,123" x1="-87.13599" y1="381.89188" x2="-77.57463" y2="393.44955" />
      <line class="basepairs" id="94,120" x1="-98.79318" y1="391.33167" x2="-89.47597" y2="403.08707" />
      <line class="basepairs" id="95,118" x1="-110.59721" y1="400.58722" x2="-101.40360" y2="412.43954" />
      <line class="basepairs" id="96,117" x1="-122.44953" y1="409.78082" x2="-113.25593" y2="421.63315" />
      <line class="basepairs" id="97,115" x1="-134.34984" y1="418.91223" x2="-125.28085" y2="430.86017" />
      <line class="basepairs" id="98,114" x1="-146.29778" y1="427.98123" x2="-137.22879" y2="439.92917" />
      <line class="basepairs" id="99,113" x1="-158.24573" y1="437.05020" x2="-149.17674" y2="448.99817" />
      <line class="basepairs" id="101,111" x1="-179.37563" y1="453.08868" x2="-170.30664" y2="465.03662" />
      <line class="basepairs" id="102,110" x1="-191.32358" y1="462.15765" x2="-182.25459" y2="474.10562" />
      <line class="basepairs" id="104,109" x1="-203.34850" y1="471.38470" x2="-194.15489" y2="483.23703" />
      <line class="basepairs" id="131,167" x1="5.31067" y1="342.52066" x2="20.30738" y2="342.83481" />
      <line class="basepairs" id="133,166" x1="5.07260" y1="357.67587" x2="20.07177" y2="357.83295" />
      <line class="basepairs" id="134,163" x1="4.75846" y1="372.67258" x2="19.75106" y2="373.14374" />
      <line class="basepairs" id="135,162" x1="4.28730" y1="387.66516" x2="19.27990" y2="388.13635" />
      <line class="basepairs" id="136,161" x1="3.81614" y1="402.65778" x2="18.80874" y2="403.12894" />
      <line class="basepairs" id="137,160" x1="3.34498" y1="417.65039" x2="18.33757" y2="418.12152" />
      <line class="basepairs" id="138,158" x1="2.79532" y1="432.64032" x2="17.78216" y2="433.26843" />
      <line class="basepairs" id="140,156" x1="1.68447" y1="459.14447" x2="16.67131" y2="459.77261" />
      <line class="basepairs" id="141,155" x1="1.05633" y1="474.13132" x2="16.04317" y2="474.75946" />
      <line class="basepairs" id="143,154" x1="0.50092" y1="489.27820" x2="15.49352" y2="489.74939" />
      <line class="basepairs" id="144,153" x1="0.02976" y1="504.27081" x2="15.02236" y2="504.74197" />
      <line class="basepairs" id="145,152" x1="-0.44140" y1="519.26343" x2="14.55120" y2="519.73456" />
      <line class="basepairs" id="146,151" x1="-0.91256" y1="534.25598" x2="14.08003" y2="534.72717" />
      <line class="basepairs" id="177,221" x1="109.50887" y1="228.85266" x2="117.27927" y2="216.02219" />
      <line class="basepairs" id="178,220" x1="122.33933" y1="236.62306" x2="130.10974" y2="223.79260" />
      <line class="basepairs" id="179,219" x1="135.16980" y1="244.39346" x2="142.94020" y2="231.56300" />
      <line class="basepairs" id="180,217" x1="147.95940" y1="252.23094" x2="155.86374" y2="239.48254" />
      <line class="basepairs" id="181,213" x1="160.58206" y1="260.33453" x2="168.88293" y2="247.84073" />
      <line class="basepairs" id="182,212" x1="173.07588" y1="268.63544" x2="181.37675" y2="256.14160" />
      <line class="basepairs" id="183,211" x1="185.56970" y1="276.93628" x2="193.87057" y2="264.44247" />
      <line class="basepairs" id="185,210" x1="198.23810" y1="285.25787" x2="206.40768" y2="272.67783" />
      <line class="basepairs" id="186,209" x1="210.81816" y1="293.42746" x2="218.98775" y2="280.84741" />
      <line class="basepairs" id="187,207" x1="223.35527" y1="301.66281" x2="231.65614" y2="289.16898" />
      <line class="basepairs" id="189,206" x1="236.02367" y1="309.98438" x2="244.19325" y2="297.40433" />
      <line class="basepairs" id="190,204" x1="248.56078" y1="318.21973" x2="256.86163" y2="305.72592" />
      <line class="basepairs" id="191,203" x1="261.05460" y1="326.52060" x2="269.35547" y2="314.02679" />
      <line class="basepairs" id="193,202" x1="273.72299" y1="334.84219" x2="281.89258" y2="322.26212" />
      <line class="basepairs" id="195,200" x1="295.97076" y1="349.29007" x2="304.14035" y2="336.71002" />
      <line class="basepairs" id="222,260" x1="118.84720" y1="201.10437" x2="113.91420" y2="186.93872" />
      <line class="basepairs" id="223,259" x1="133.01285" y1="196.17136" x2="128.07985" y2="182.00572" />
      <line class="basepairs" id="224,257" x1="147.20413" y1="191.31259" x2="142.41974" y2="177.09607" />
      <line class="basepairs" id="225,256" x1="161.42065" y1="186.52821" x2="156.63626" y2="172.31169" />
      <line class="basepairs" id="226,255" x1="175.63718" y1="181.74382" x2="170.85278" y2="167.52730" />
      <line class="basepairs" id="228,254" x1="189.97707" y1="176.83418" x2="185.04407" y2="162.66853" />
      <line class="basepairs" id="229,252" x1="204.16835" y1="171.97542" x2="199.38396" y2="157.75890" />
      <line class="basepairs" id="230,251" x1="218.38487" y1="167.19102" x2="213.60049" y2="152.97450" />
      <line class="basepairs" id="231,250" x1="232.60141" y1="162.40663" x2="227.81702" y2="148.19011" />
      <line class="basepairs" id="234,248" x1="261.69504" y1="152.45581" x2="256.76205" y2="138.29016" />
      <line class="basepairs" id="235,247" x1="275.86069" y1="147.52281" x2="270.92767" y2="133.35716" />
      <line class="basepairs" id="237,246" x1="290.14838" y1="142.46327" x2="285.06732" y2="128.35007" />
      <line class="basepairs" id="238,244" x1="304.28799" y1="137.45618" x2="299.35501" y2="123.29053" />
    </g>
    <g transform="translate(-4.6, 4)" id="seq">
      <text class="nucleotide" x="87.927" y="-220.401">G</text>
      <text class="nucleotide" x="87.378" y="-205.412">C</text>
      <text class="nucleotide" x="79.114" y="-193.019">C</text>
      <text class="nucleotide" x="86.267" y="-178.907">G</text>
      <text class="nucleotide" x="85.639" y="-163.921">G</text>
      <text class="nucleotide" x="85.011" y="-148.934">G</text>
      <text class="nucleotide" x="70.101" y="-147.288">C</text>
      <text class="nucleotide" x="66.219" y="-161.777">G</text>
      <text class="nucleotide" x="62.337" y="-176.265">C</text>
      <text class="nucleotide" x="58.454" y="-190.754">G</text>
      <text class="nucleotide" x="63.219" y="-206.446">G</text>
      <text class="nucleotide" x="51.816" y="-218.232">U</text>
      <text class="nucleotide" x="35.976" y="-213.987">G</text>
      <text class="nucleotide" x="31.993" y="-198.079">G</text>
      <text class="nucleotide" x="43.966" y="-186.872">C</text>
      <text class="nucleotide" x="47.848" y="-172.383">G</text>
      <text class="nucleotide" x="51.730" y="-157.894">C</text>
      <text class="nucleotide" x="55.612" y="-143.405">G</text>
      <text class="nucleotide" x="58.191" y="-128.629">U</text>
      <text class="nucleotide" x="55.632" y="-121.734">G</text>
      <text class="nucleotide" x="59.539" y="-113.532">C</text>
      <text class="nucleotide" x="60.872" y="-98.591">C</text>
      <text class="nucleotide" x="58.313" y="-91.696">U</text>
      <text class="nucleotide" x="62.219" y="-83.494">G</text>
      <text class="nucleotide" x="63.553" y="-68.553">U</text>
      <text class="nucleotide" x="64.808" y="-53.606">A</text>
      <text class="nucleotide" x="65.985" y="-38.652">G</text>
      <text class="nucleotide" x="67.005" y="-23.687">U</text>
      <text class="nucleotide" x="67.790" y="-8.707">C</text>
      <text class="nucleotide" x="68.418" y="6.279">C</text>
      <text class="nucleotide" x="54.813" y="12.595">C</text>
      <text class="nucleotide" x="43.771" y="2.442">A</text>
      <text class="nucleotide" x="32.730" y="-7.711">G</text>
      <text class="nucleotide" x="21.742" y="-17.922">C</text>
      <text class="nucleotide" x="10.807" y="-28.190">U</text>
      <text class="nucleotide" x="6.720" y="-36.304">A</text>
      <text class="nucleotide" x="-0.296" y="-38.508">C</text>
      <text class="nucleotide" x="-4.681" y="-54.310">U</text>
      <text class="nucleotide" x="-20.624" y="-58.151">C</text>
      <text class="nucleotide" x="-31.724" y="-46.080">G</text>
      <text class="nucleotide" x="-26.563" y="-30.514">G</text>
      <text class="nucleotide" x="-10.449" y="-27.467">G</text>
      <text class="nucleotide" x="0.539" y="-17.256">A</text>
      <text class="nucleotide" x="11.473" y="-6.988">G</text>
      <text class="nucleotide" x="14.185" y="-0.152">G</text>
      <text class="nucleotide" x="22.577" y="3.330">C</text>
      <text class="nucleotide" x="33.618" y="13.483">U</text>
      <text class="nucleotide" x="44.660" y="23.636">G</text>
      <text class="nucleotide" x="52.227" y="36.587">A</text>
      <text class="nucleotide" x="55.653" y="51.191">G</text>
      <text class="nucleotide" x="59.078" y="65.795">G</text>
      <text class="nucleotide" x="62.503" y="80.398">C</text>
      <text class="nucleotide" x="65.929" y="95.002">U</text>
      <text class="nucleotide" x="69.354" y="109.606">G</text>
      <text class="nucleotide" x="72.779" y="124.209">G</text>
      <text class="nucleotide" x="76.204" y="138.813">A</text>
      <text class="nucleotide" x="79.630" y="153.417">G</text>
      <text class="nucleotide" x="82.978" y="168.038">G</text>
      <text class="nucleotide" x="86.174" y="182.694">A</text>
      <text class="nucleotide" x="82.991" y="222.192">U</text>
      <text class="nucleotide" x="73.673" y="233.947">C</text>
      <text class="nucleotide" x="65.930" y="238.699">G</text>
      <text class="nucleotide" x="64.321" y="245.875">C</text>
      <text class="nucleotide" x="55.127" y="257.727">U</text>
      <text class="nucleotide" x="45.934" y="269.579">U</text>
      <text class="nucleotide" x="38.240" y="274.412">G</text>
      <text class="nucleotide" x="36.707" y="281.604">A</text>
      <text class="nucleotide" x="27.638" y="293.552">G</text>
      <text class="nucleotide" x="21.312" y="285.234">U</text>
      <text class="nucleotide" x="10.187" y="280.148">C</text>
      <text class="nucleotide" x="-4.810" y="280.462">C</text>
      <text class="nucleotide" x="-19.807" y="280.776">A</text>
      <text class="nucleotide" x="-34.803" y="281.090">G</text>
      <text class="nucleotide" x="-47.331" y="271.069">G</text>
      <text class="nucleotide" x="-62.945" y="274.755">A</text>
      <text class="nucleotide" x="-69.667" y="289.322">G</text>
      <text class="nucleotide" x="-62.341" y="303.595">U</text>
      <text class="nucleotide" x="-46.586" y="306.624">U</text>
      <text class="nucleotide" x="-34.489" y="296.087">C</text>
      <text class="nucleotide" x="-19.492" y="295.773">U</text>
      <text class="nucleotide" x="-4.496" y="295.459">G</text>
      <text class="nucleotide" x="10.501" y="295.145">G</text>
      <text class="nucleotide" x="18.271" y="307.975">G</text>
      <text class="nucleotide" x="11.045" y="321.120">C</text>
      <text class="nucleotide" x="-17.600" y="324.264">U</text>
      <text class="nucleotide" x="-29.257" y="333.704">G</text>
      <text class="nucleotide" x="-37.850" y="336.652">U</text>
      <text class="nucleotide" x="-40.986" y="343.304">A</text>
      <text class="nucleotide" x="-49.548" y="346.342">G</text>
      <text class="nucleotide" x="-52.614" y="353.027">U</text>
      <text class="nucleotide" x="-64.071" y="362.709">G</text>
      <text class="nucleotide" x="-75.578" y="372.331">C</text>
      <text class="nucleotide" x="-87.136" y="381.892">G</text>
      <text class="nucleotide" x="-98.793" y="391.332">C</text>
      <text class="nucleotide" x="-110.597" y="400.587">U</text>
      <text class="nucleotide" x="-122.450" y="409.781">A</text>
      <text class="nucleotide" x="-134.350" y="418.912">U</text>
      <text class="nucleotide" x="-146.298" y="427.981">G</text>
      <text class="nucleotide" x="-158.246" y="437.050">C</text>
      <text class="nucleotide" x="-173.916" y="439.231">C</text>
      <text class="nucleotide" x="-179.376" y="453.089">G</text>
      <text class="nucleotide" x="-191.324" y="462.158">A</text>
      <text class="nucleotide" x="-200.006" y="464.834">U</text>
      <text class="nucleotide" x="-203.348" y="471.385">C</text>
      <text class="nucleotide" x="-219.661" y="473.073">G</text>
      <text class="nucleotide" x="-226.106" y="488.152">G</text>
      <text class="nucleotide" x="-216.055" y="501.110">G</text>
      <text class="nucleotide" x="-199.847" y="498.617">U</text>
      <text class="nucleotide" x="-194.155" y="483.237">G</text>
      <text class="nucleotide" x="-182.255" y="474.106">U</text>
      <text class="nucleotide" x="-170.307" y="465.037">C</text>
      <text class="nucleotide" x="-155.491" y="463.505">C</text>
      <text class="nucleotide" x="-149.177" y="448.998">G</text>
      <text class="nucleotide" x="-137.229" y="439.929">C</text>
      <text class="nucleotide" x="-125.281" y="430.860">A</text>
      <text class="nucleotide" x="-118.088" y="429.327">C</text>
      <text class="nucleotide" x="-113.256" y="421.633">U</text>
      <text class="nucleotide" x="-101.404" y="412.440">A</text>
      <text class="nucleotide" x="-94.227" y="410.831">A</text>
      <text class="nucleotide" x="-89.476" y="403.087">G</text>
      <text class="nucleotide" x="-84.757" y="402.728">U</text>
      <text class="nucleotide" x="-80.202" y="399.432">U</text>
      <text class="nucleotide" x="-77.575" y="393.450">C</text>
      <text class="nucleotide" x="-66.017" y="383.888">G</text>
      <text class="nucleotide" x="-58.895" y="382.055">G</text>
      <text class="nucleotide" x="-54.389" y="374.166">C</text>
      <text class="nucleotide" x="-42.932" y="364.484">A</text>
      <text class="nucleotide" x="-31.425" y="354.862">U</text>
      <text class="nucleotide" x="-19.817" y="345.361">C</text>
      <text class="nucleotide" x="-8.160" y="335.922">A</text>
      <text class="nucleotide" x="5.311" y="342.521">A</text>
      <text class="nucleotide" x="2.015" y="350.987">U</text>
      <text class="nucleotide" x="5.073" y="357.676">A</text>
      <text class="nucleotide" x="4.758" y="372.673">U</text>
      <text class="nucleotide" x="4.287" y="387.665">G</text>
      <text class="nucleotide" x="3.816" y="402.658">G</text>
      <text class="nucleotide" x="3.345" y="417.650">U</text>
      <text class="nucleotide" x="2.795" y="432.640">G</text>
      <text class="nucleotide" x="-5.513" y="446.104">A</text>
      <text class="nucleotide" x="1.684" y="459.144">C</text>
      <text class="nucleotide" x="1.056" y="474.131">C</text>
      <text class="nucleotide" x="-2.416" y="482.527">U</text>
      <text class="nucleotide" x="0.501" y="489.278">C</text>
      <text class="nucleotide" x="0.030" y="504.271">C</text>
      <text class="nucleotide" x="-0.441" y="519.263">C</text>
      <text class="nucleotide" x="-0.913" y="534.256">G</text>
      <text class="nucleotide" x="-10.009" y="547.901">G</text>
      <text class="nucleotide" x="-2.499" y="562.479">G</text>
      <text class="nucleotide" x="13.892" y="562.994">A</text>
      <text class="nucleotide" x="22.302" y="548.916">G</text>
      <text class="nucleotide" x="14.080" y="534.727">C</text>
      <text class="nucleotide" x="14.551" y="519.735">G</text>
      <text class="nucleotide" x="15.022" y="504.742">G</text>
      <text class="nucleotide" x="15.494" y="489.749">G</text>
      <text class="nucleotide" x="16.043" y="474.759">G</text>
      <text class="nucleotide" x="16.671" y="459.773">G</text>
      <text class="nucleotide" x="24.935" y="447.380">A</text>
      <text class="nucleotide" x="17.782" y="433.268">C</text>
      <text class="nucleotide" x="21.185" y="426.749">C</text>
      <text class="nucleotide" x="18.338" y="418.122">A</text>
      <text class="nucleotide" x="18.809" y="403.129">C</text>
      <text class="nucleotide" x="19.280" y="388.136">C</text>
      <text class="nucleotide" x="19.751" y="373.144">A</text>
      <text class="nucleotide" x="22.522" y="369.308">G</text>
      <text class="nucleotide" x="22.945" y="363.701">G</text>
      <text class="nucleotide" x="20.072" y="357.833">U</text>
      <text class="nucleotide" x="20.307" y="342.835">U</text>
      <text class="nucleotide" x="24.190" y="328.346">G</text>
      <text class="nucleotide" x="31.416" y="315.201">C</text>
      <text class="nucleotide" x="39.586" y="302.621">C</text>
      <text class="nucleotide" x="48.655" y="290.673">U</text>
      <text class="nucleotide" x="57.786" y="278.773">A</text>
      <text class="nucleotide" x="66.980" y="266.921">A</text>
      <text class="nucleotide" x="76.173" y="255.068">G</text>
      <text class="nucleotide" x="85.429" y="243.264">G</text>
      <text class="nucleotide" x="94.746" y="231.509">A</text>
      <text class="nucleotide" x="109.509" y="228.853">G</text>
      <text class="nucleotide" x="122.339" y="236.623">G</text>
      <text class="nucleotide" x="135.170" y="244.393">G</text>
      <text class="nucleotide" x="147.959" y="252.231">G</text>
      <text class="nucleotide" x="160.582" y="260.335">U</text>
      <text class="nucleotide" x="173.076" y="268.635">G</text>
      <text class="nucleotide" x="185.570" y="276.936">A</text>
      <text class="nucleotide" x="190.952" y="284.255">A</text>
      <text class="nucleotide" x="198.238" y="285.258">C</text>
      <text class="nucleotide" x="210.818" y="293.427">C</text>
      <text class="nucleotide" x="223.355" y="301.663">G</text>
      <text class="nucleotide" x="228.738" y="308.982">G</text>
      <text class="nucleotide" x="236.024" y="309.984">C</text>
      <text class="nucleotide" x="248.561" y="318.220">C</text>
      <text class="nucleotide" x="261.055" y="326.521">C</text>
      <text class="nucleotide" x="266.437" y="333.839">A</text>
      <text class="nucleotide" x="273.723" y="334.842">G</text>
      <text class="nucleotide" x="281.083" y="348.847">G</text>
      <text class="nucleotide" x="295.971" y="349.290">U</text>
      <text class="nucleotide" x="302.930" y="364.139">C</text>
      <text class="nucleotide" x="319.290" y="365.268">G</text>
      <text class="nucleotide" x="328.222" y="351.514">G</text>
      <text class="nucleotide" x="320.536" y="337.027">A</text>
      <text class="nucleotide" x="304.140" y="336.710">A</text>
      <text class="nucleotide" x="297.680" y="323.289">A</text>
      <text class="nucleotide" x="281.893" y="322.262">C</text>
      <text class="nucleotide" x="269.355" y="314.027">G</text>
      <text class="nucleotide" x="256.862" y="305.726">G</text>
      <text class="nucleotide" x="253.048" y="299.438">A</text>
      <text class="nucleotide" x="244.193" y="297.404">G</text>
      <text class="nucleotide" x="231.656" y="289.169">C</text>
      <text class="nucleotide" x="227.842" y="282.881">A</text>
      <text class="nucleotide" x="218.988" y="280.847">G</text>
      <text class="nucleotide" x="206.408" y="272.678">G</text>
      <text class="nucleotide" x="193.871" y="264.442">U</text>
      <text class="nucleotide" x="181.377" y="256.142">C</text>
      <text class="nucleotide" x="168.883" y="247.841">A</text>
      <text class="nucleotide" x="167.826" y="244.524">A</text>
      <text class="nucleotide" x="165.137" y="241.543">A</text>
      <text class="nucleotide" x="160.985" y="239.647">A</text>
      <text class="nucleotide" x="155.864" y="239.483">C</text>
      <text class="nucleotide" x="151.854" y="233.317">U</text>
      <text class="nucleotide" x="142.940" y="231.563">C</text>
      <text class="nucleotide" x="130.110" y="223.793">C</text>
      <text class="nucleotide" x="117.279" y="216.022">C</text>
      <text class="nucleotide" x="118.847" y="201.104">G</text>
      <text class="nucleotide" x="133.013" y="196.171">U</text>
      <text class="nucleotide" x="147.204" y="191.313">G</text>
      <text class="nucleotide" x="161.421" y="186.528">C</text>
      <text class="nucleotide" x="175.637" y="181.744">U</text>
      <text class="nucleotide" x="184.719" y="181.976">G</text>
      <text class="nucleotide" x="189.977" y="176.834">A</text>
      <text class="nucleotide" x="204.168" y="171.975">U</text>
      <text class="nucleotide" x="218.385" y="167.191">C</text>
      <text class="nucleotide" x="232.601" y="162.407">A</text>
      <text class="nucleotide" x="244.449" y="167.426">G</text>
      <text class="nucleotide" x="256.171" y="163.183">U</text>
      <text class="nucleotide" x="261.695" y="152.456">A</text>
      <text class="nucleotide" x="275.861" y="147.523">G</text>
      <text class="nucleotide" x="284.945" y="147.660">U</text>
      <text class="nucleotide" x="290.148" y="142.463">G</text>
      <text class="nucleotide" x="304.288" y="137.456">G</text>
      <text class="nucleotide" x="319.300" y="143.116">G</text>
      <text class="nucleotide" x="333.010" y="134.785">A</text>
      <text class="nucleotide" x="334.901" y="118.854">U</text>
      <text class="nucleotide" x="323.523" y="107.544">C</text>
      <text class="nucleotide" x="307.604" y="109.531">G</text>
      <text class="nucleotide" x="299.355" y="123.291">C</text>
      <text class="nucleotide" x="292.040" y="122.526">G</text>
      <text class="nucleotide" x="285.067" y="128.350">C</text>
      <text class="nucleotide" x="270.928" y="133.357">C</text>
      <text class="nucleotide" x="256.762" y="138.290">U</text>
      <text class="nucleotide" x="239.701" y="134.095">G</text>
      <text class="nucleotide" x="227.817" y="148.190">U</text>
      <text class="nucleotide" x="213.600" y="152.975">G</text>
      <text class="nucleotide" x="199.384" y="157.759">A</text>
      <text class="nucleotide" x="192.078" y="156.918">A</text>
      <text class="nucleotide" x="185.044" y="162.669">U</text>
      <text class="nucleotide" x="170.853" y="167.527">A</text>
      <text class="nucleotide" x="156.636" y="172.312">G</text>
      <text class="nucleotide" x="142.420" y="177.096">C</text>
      <text class="nucleotide" x="135.114" y="176.255">C</text>
      <text class="nucleotide" x="128.080" y="182.006">A</text>
      <text class="nucleotide" x="113.914" y="186.939">C</text>
      <text class="nucleotide" x="100.846" y="179.575">U</text>
      <text class="nucleotide" x="102.121" y="170.580">G</text>
      <text class="nucleotide" x="97.617" y="164.766">C</text>
      <text class="nucleotide" x="98.798" y="155.758">A</text>
      <text class="nucleotide" x="94.233" y="149.991">C</text>
      <text class="nucleotide" x="90.808" y="135.388">U</text>
      <text class="nucleotide" x="87.383" y="120.784">C</text>
      <text class="nucleotide" x="83.957" y="106.180">C</text>
      <text class="nucleotide" x="80.532" y="91.577">A</text>
      <text class="nucleotide" x="77.107" y="76.973">G</text>
      <text class="nucleotide" x="73.682" y="62.369">C</text>
      <text class="nucleotide" x="70.256" y="47.766">C</text>
      <text class="nucleotide" x="66.831" y="33.162">U</text>
      <text class="nucleotide" x="83.405" y="5.651">G</text>
      <text class="nucleotide" x="82.777" y="-9.336">G</text>
      <text class="nucleotide" x="85.465" y="-15.291">G</text>
      <text class="nucleotide" x="84.866" y="-20.882">C</text>
      <text class="nucleotide" x="81.976" y="-24.629">A</text>
      <text class="nucleotide" x="84.551" y="-33.341">A</text>
      <text class="nucleotide" x="80.945" y="-39.751">C</text>
      <text class="nucleotide" x="83.429" y="-48.490">A</text>
      <text class="nucleotide" x="79.755" y="-54.861">U</text>
      <text class="nucleotide" x="78.500" y="-69.809">A</text>
      <text class="nucleotide" x="80.893" y="-78.573">G</text>
      <text class="nucleotide" x="77.153" y="-84.906">C</text>
      <text class="nucleotide" x="75.819" y="-99.846">G</text>
      <text class="nucleotide" x="78.212" y="-108.611">A</text>
      <text class="nucleotide" x="74.472" y="-114.943">G</text>
      <text class="nucleotide" x="73.139" y="-129.884">A</text>
      <text class="nucleotide" x="99.998" y="-148.306">C</text>
      <text class="nucleotide" x="100.626" y="-163.292">C</text>
      <text class="nucleotide" x="101.254" y="-178.279">C</text>
      <text class="nucleotide" x="109.562" y="-191.743">C</text>
      <text class="nucleotide" x="102.365" y="-204.783">G</text>
      <text class="nucleotide" x="105.837" y="-213.179">U</text>
      <text class="nucleotide" x="102.920" y="-219.930">C</text>
      <text class="nucleotide" x="112.017" y="-233.575">U</text>
      <text class="nucleotide" x="104.507" y="-248.154">C</text>
      <text class="nucleotide" x="88.116" y="-248.669">U</text>
    </g>
  </g>
</svg>
