<?xml version="1.0" encoding="UTF-8" standalone="yes" ?>
<svg xmlns="http://www.w3.org/2000/svg" height="452" width="452">
  <script type="text/ecmascript">
    <![CDATA[
      var shown = 1;
      function click() {
        var seq = document.getElementById("seq");
        if (shown==1) {
          seq.setAttribute("style", "visibility: hidden");
          shown = 0;
        } else {
          seq.setAttribute("style", "visibility: visible");
          shown = 1;
        }
      }
    ]]>
  </script>
  <style type="text/css">
    <![CDATA[
      .nucleotide {
        font-family: SansSerif;
      }
      .backbone {
        stroke: grey;
        fill:   none;
        stroke-width: 1.5;
      }
      .basepairs {
        stroke: red;
        fill:   none;
        stroke-width: 2.5;
      }
    ]]>
  </style>

  <rect style="stroke: white; fill: white" height="452" x="0" y="0" width="452" onclick="click(evt)" />
  <g transform="scale(5.408566,5.408566) translate(-58.214432,-16.428864)">
    <polyline class="backbone" id="outline" points="
      92.500,23.929
      92.500,38.929
      79.466,47.183
      72.985,61.183
      75.124,76.461
      85.201,88.143
      100.000,92.500
      114.799,88.143
      124.876,76.461
      127.015,61.183
      120.534,47.183
      107.500,38.929
      107.500,23.929
    " />
    <g id="pairs">
      <line class="basepairs" id="1,13" x1="92.50000" y1="23.92886" x2="107.50000" y2="23.92886" />
      <line class="basepairs" id="2,12" x1="92.50000" y1="38.92886" x2="107.50000" y2="38.92886" />
    </g>
    <g transform="translate(-4.6, 4)" id="seq">
      <text class="nucleotide" x="92.500" y="23.929">A</text>
      <text class="nucleotide" x="92.500" y="38.929">A</text>
      <text class="nucleotide" x="79.466" y="47.183">U</text>
      <text class="nucleotide" x="72.985" y="61.183">U</text>
      <text class="nucleotide" x="75.124" y="76.461">G</text>
      <text class="nucleotide" x="85.201" y="88.143">G</text>
      <text class="nucleotide" x="100.000" y="92.500">C</text>
      <text class="nucleotide" x="114.799" y="88.143">C</text>
      <text class="nucleotide" x="124.876" y="76.461">G</text>
      <text class="nucleotide" x="127.015" y="61.183">G</text>
      <text class="nucleotide" x="120.534" y="47.183">G</text>
      <text class="nucleotide" x="107.500" y="38.929">U</text>
      <text class="nucleotide" x="107.500" y="23.929">U</text>
    </g>
  </g>
</svg>
