<?xml version="1.0" encoding="UTF-8" standalone="yes" ?>
<svg xmlns="http://www.w3.org/2000/svg" height="452" width="452">
  <script type="text/ecmascript">
    <![CDATA[
      var shown = 1;
      function click() {
        var seq = document.getElementById("seq");
        if (shown==1) {
          seq.setAttribute("style", "visibility: hidden");
          shown = 0;
        } else {
          seq.setAttribute("style", "visibility: visible");
          shown = 1;
        }
      }
    ]]>
  </script>
  <style type="text/css">
    <![CDATA[
      .nucleotide {
        font-family: SansSerif;
      }
      .backbone {
        stroke: grey;
        fill:   none;
        stroke-width: 1.5;
      }
      .basepairs {
        stroke: red;
        fill:   none;
        stroke-width: 2.5;
      }
    ]]>
  </style>

  <rect style="stroke: white; fill: white" height="452" x="0" y="0" width="452" onclick="click(evt)" />
  <g transform="scale(2.842061,2.842061) translate(-33.416088,-4.224838)">
    <polyline class="backbone" id="outline" points="
      85.437,11.725
      73.024,21.887
      73.373,37.927
      86.218,47.539
      84.501,55.621
      91.020,63.580
      89.549,69.956
      92.504,76.449
      99.315,80.096
      106.815,93.087
      106.094,108.892
      118.721,116.793
      125.453,130.197
      123.959,146.528
      137.510,155.764
      152.165,148.404
      152.848,132.020
      138.857,123.465
      132.125,110.061
      133.327,95.215
      120.220,86.355
      120.026,78.094
      111.847,71.854
      105.115,58.449
      100.813,44.079
      107.978,29.725
    " />
    <g id="pairs">
      <line class="basepairs" id="4,25" x1="86.21767" y1="47.53864" x2="100.81335" y2="44.07940" />
      <line class="basepairs" id="6,24" x1="91.02000" y1="63.57954" x2="105.11539" y2="58.44924" />
      <line class="basepairs" id="9,23" x1="99.31506" y1="80.09637" x2="111.84738" y2="71.85373" />
      <line class="basepairs" id="10,21" x1="106.81506" y1="93.08675" x2="120.21955" y2="86.35476" />
      <line class="basepairs" id="12,19" x1="118.72056" y1="116.79254" x2="132.12505" y2="110.06055" />
      <line class="basepairs" id="13,18" x1="125.45255" y1="130.19702" x2="138.85704" y2="123.46504" />
    </g>
    <g transform="translate(-4.6, 4)" id="seq">
      <text class="nucleotide" x="85.437" y="11.725">A</text>
      <text class="nucleotide" x="73.024" y="21.887">U</text>
      <text class="nucleotide" x="73.373" y="37.927">G</text>
      <text class="nucleotide" x="86.218" y="47.539">C</text>
      <text class="nucleotide" x="84.501" y="55.621">G</text>
      <text class="nucleotide" x="91.020" y="63.580">C</text>
      <text class="nucleotide" x="89.549" y="69.956">G</text>
      <text class="nucleotide" x="92.504" y="76.449">G</text>
      <text class="nucleotide" x="99.315" y="80.096">C</text>
      <text class="nucleotide" x="106.815" y="93.087">G</text>
      <text class="nucleotide" x="106.094" y="108.892">C</text>
      <text class="nucleotide" x="118.721" y="116.793">U</text>
      <text class="nucleotide" x="125.453" y="130.197">A</text>
      <text class="nucleotide" x="123.959" y="146.528">U</text>
      <text class="nucleotide" x="137.510" y="155.764">G</text>
      <text class="nucleotide" x="152.165" y="148.404">U</text>
      <text class="nucleotide" x="152.848" y="132.020">C</text>
      <text class="nucleotide" x="138.857" y="123.465">U</text>
      <text class="nucleotide" x="132.125" y="110.061">A</text>
      <text class="nucleotide" x="133.327" y="95.215">U</text>
      <text class="nucleotide" x="120.220" y="86.355">C</text>
      <text class="nucleotide" x="120.026" y="78.094">U</text>
      <text class="nucleotide" x="111.847" y="71.854">G</text>
      <text class="nucleotide" x="105.115" y="58.449">G</text>
      <text class="nucleotide" x="100.813" y="44.079">G</text>
      <text class="nucleotide" x="107.978" y="29.725">G</text>
    </g>
  </g>
</svg>
