<?xml version="1.0" encoding="UTF-8" standalone="yes" ?>
<svg xmlns="http://www.w3.org/2000/svg" height="452" width="452">
  <script type="text/ecmascript">
    <![CDATA[
      var shown = 1;
      function click() {
        var seq = document.getElementById("seq");
        if (shown==1) {
          seq.setAttribute("style", "visibility: hidden");
          shown = 0;
        } else {
          seq.setAttribute("style", "visibility: visible");
          shown = 1;
        }
      }
    ]]>
  </script>
  <style type="text/css">
    <![CDATA[
      .nucleotide {
        font-family: SansSerif;
      }
      .backbone {
        stroke: grey;
        fill:   none;
        stroke-width: 1.5;
      }
      .basepairs {
        stroke: red;
        fill:   none;
        stroke-width: 2.5;
      }
    ]]>
  </style>

  <rect style="stroke: white; fill: white" height="452" x="0" y="0" width="452" onclick="click(evt)" />
  <g transform="scale(1.192122,1.192122) translate(88.014648,112.076416)">
    <polyline class="backbone" id="outline" points="
      82.161,-104.576
      88.207,-88.737
      87.850,-73.742
      87.137,-58.759
      86.423,-43.776
      82.830,-37.006
      86.049,-28.066
      86.049,-13.066
      82.782,-6.134
      86.423,2.643
      83.674,6.949
      83.865,13.090
      87.984,18.997
      90.119,33.844
      91.900,48.738
      89.406,56.733
      93.765,64.341
      95.546,79.234
      96.972,94.167
      98.042,109.128
      95.252,118.212
      99.163,124.802
      100.589,139.734
      102.015,154.666
      102.729,169.649
      102.729,184.649
      102.015,199.632
      100.234,214.526
      98.099,229.374
      87.542,241.923
      93.385,257.246
      109.617,259.580
      119.541,246.523
      112.947,231.508
      115.081,216.661
      119.301,210.264
      116.947,201.058
      120.281,197.187
      120.966,191.082
      117.729,184.649
      117.729,169.649
      120.679,165.479
      120.781,159.337
      116.947,153.241
      115.521,138.308
      114.095,123.376
      113.025,108.415
      115.958,101.335
      111.904,92.741
      110.478,77.809
      113.071,70.597
      108.613,62.206
      106.832,47.312
      109.186,38.106
      104.966,31.709
      102.832,16.862
      101.406,1.930
      101.049,-13.066
      101.049,-28.066
      101.406,-43.062
      102.120,-58.045
      102.833,-73.028
      106.474,-81.805
      103.207,-88.737
      109.254,-104.576
    " />
    <g id="pairs">
      <line class="basepairs" id="2,64" x1="88.20724" y1="-88.73729" x2="103.20724" y2="-88.73729" />
      <line class="basepairs" id="3,62" x1="87.85027" y1="-73.74153" x2="102.83328" y2="-73.02780" />
      <line class="basepairs" id="4,61" x1="87.13654" y1="-58.75853" x2="102.11955" y2="-58.04480" />
      <line class="basepairs" id="5,60" x1="86.42282" y1="-43.77551" x2="101.40583" y2="-43.06178" />
      <line class="basepairs" id="7,59" x1="86.04886" y1="-28.06604" x2="101.04886" y2="-28.06604" />
      <line class="basepairs" id="8,58" x1="86.04886" y1="-13.06604" x2="101.04886" y2="-13.06604" />
      <line class="basepairs" id="10,57" x1="86.42282" y1="2.64345" x2="101.40583" y2="1.92972" />
      <line class="basepairs" id="13,56" x1="87.98434" y1="18.99652" x2="102.83167" y2="16.86180" />
      <line class="basepairs" id="14,55" x1="90.11907" y1="33.84384" x2="104.96639" y2="31.70912" />
      <line class="basepairs" id="15,53" x1="91.89986" y1="48.73776" x2="106.83193" y2="47.31192" />
      <line class="basepairs" id="17,52" x1="93.76540" y1="64.34056" x2="108.61272" y2="62.20584" />
      <line class="basepairs" id="18,50" x1="95.54618" y1="79.23448" x2="110.47826" y2="77.80864" />
      <line class="basepairs" id="19,49" x1="96.97202" y1="94.16656" x2="111.90411" y2="92.74072" />
      <line class="basepairs" id="20,47" x1="98.04211" y1="109.12834" x2="113.02512" y2="108.41461" />
      <line class="basepairs" id="22,46" x1="99.16313" y1="124.80223" x2="114.09521" y2="123.37639" />
      <line class="basepairs" id="23,45" x1="100.58897" y1="139.73431" x2="115.52105" y2="138.30847" />
      <line class="basepairs" id="24,44" x1="102.01482" y1="154.66640" x2="116.94689" y2="153.24055" />
      <line class="basepairs" id="25,41" x1="102.72854" y1="169.64940" x2="117.72854" y2="169.64940" />
      <line class="basepairs" id="26,40" x1="102.72854" y1="184.64940" x2="117.72854" y2="184.64940" />
      <line class="basepairs" id="27,37" x1="102.01482" y1="199.63242" x2="116.94689" y2="201.05826" />
      <line class="basepairs" id="28,35" x1="100.23402" y1="214.52634" x2="115.08135" y2="216.66106" />
      <line class="basepairs" id="29,34" x1="98.09930" y1="229.37366" x2="112.94662" y2="231.50838" />
    </g>
    <g transform="translate(-4.6, 4)" id="seq">
      <text class="nucleotide" x="82.161" y="-104.576">A</text>
      <text class="nucleotide" x="88.207" y="-88.737">U</text>
      <text class="nucleotide" x="87.850" y="-73.742">G</text>
      <text class="nucleotide" x="87.137" y="-58.759">U</text>
      <text class="nucleotide" x="86.423" y="-43.776">C</text>
      <text class="nucleotide" x="82.830" y="-37.006">A</text>
      <text class="nucleotide" x="86.049" y="-28.066">G</text>
      <text class="nucleotide" x="86.049" y="-13.066">U</text>
      <text class="nucleotide" x="82.782" y="-6.134">A</text>
      <text class="nucleotide" x="86.423" y="2.643">C</text>
      <text class="nucleotide" x="83.674" y="6.949">G</text>
      <text class="nucleotide" x="83.865" y="13.090">A</text>
      <text class="nucleotide" x="87.984" y="18.997">U</text>
      <text class="nucleotide" x="90.119" y="33.844">G</text>
      <text class="nucleotide" x="91.900" y="48.738">G</text>
      <text class="nucleotide" x="89.406" y="56.733">G</text>
      <text class="nucleotide" x="93.765" y="64.341">A</text>
      <text class="nucleotide" x="95.546" y="79.234">C</text>
      <text class="nucleotide" x="96.972" y="94.167">A</text>
      <text class="nucleotide" x="98.042" y="109.128">C</text>
      <text class="nucleotide" x="95.252" y="118.212">G</text>
      <text class="nucleotide" x="99.163" y="124.802">A</text>
      <text class="nucleotide" x="100.589" y="139.734">C</text>
      <text class="nucleotide" x="102.015" y="154.666">A</text>
      <text class="nucleotide" x="102.729" y="169.649">A</text>
      <text class="nucleotide" x="102.729" y="184.649">U</text>
      <text class="nucleotide" x="102.015" y="199.632">U</text>
      <text class="nucleotide" x="100.234" y="214.526">A</text>
      <text class="nucleotide" x="98.099" y="229.374">U</text>
      <text class="nucleotide" x="87.542" y="241.923">G</text>
      <text class="nucleotide" x="93.385" y="257.246">A</text>
      <text class="nucleotide" x="109.617" y="259.580">U</text>
      <text class="nucleotide" x="119.541" y="246.523">G</text>
      <text class="nucleotide" x="112.947" y="231.508">A</text>
      <text class="nucleotide" x="115.081" y="216.661">U</text>
      <text class="nucleotide" x="119.301" y="210.264">G</text>
      <text class="nucleotide" x="116.947" y="201.058">A</text>
      <text class="nucleotide" x="120.281" y="197.187">U</text>
      <text class="nucleotide" x="120.966" y="191.082">G</text>
      <text class="nucleotide" x="117.729" y="184.649">A</text>
      <text class="nucleotide" x="117.729" y="169.649">U</text>
      <text class="nucleotide" x="120.679" y="165.479">G</text>
      <text class="nucleotide" x="120.781" y="159.337">A</text>
      <text class="nucleotide" x="116.947" y="153.241">U</text>
      <text class="nucleotide" x="115.521" y="138.308">G</text>
      <text class="nucleotide" x="114.095" y="123.376">U</text>
      <text class="nucleotide" x="113.025" y="108.415">G</text>
      <text class="nucleotide" x="115.958" y="101.335">A</text>
      <text class="nucleotide" x="111.904" y="92.741">U</text>
      <text class="nucleotide" x="110.478" y="77.809">G</text>
      <text class="nucleotide" x="113.071" y="70.597">A</text>
      <text class="nucleotide" x="108.613" y="62.206">U</text>
      <text class="nucleotide" x="106.832" y="47.312">C</text>
      <text class="nucleotide" x="109.186" y="38.106">G</text>
      <text class="nucleotide" x="104.966" y="31.709">C</text>
      <text class="nucleotide" x="102.832" y="16.862">A</text>
      <text class="nucleotide" x="101.406" y="1.930">G</text>
      <text class="nucleotide" x="101.049" y="-13.066">A</text>
      <text class="nucleotide" x="101.049" y="-28.066">C</text>
      <text class="nucleotide" x="101.406" y="-43.062">G</text>
      <text class="nucleotide" x="102.120" y="-58.045">A</text>
      <text class="nucleotide" x="102.833" y="-73.028">C</text>
      <text class="nucleotide" x="106.474" y="-81.805">G</text>
      <text class="nucleotide" x="103.207" y="-88.737">A</text>
      <text class="nucleotide" x="109.254" y="-104.576">C</text>
    </g>
  </g>
</svg>
