<?xml version="1.0" encoding="UTF-8" standalone="yes" ?>
<svg xmlns="http://www.w3.org/2000/svg" height="452" width="452">
  <script type="text/ecmascript">
    <![CDATA[
      var shown = 1;
      function click() {
        var seq = document.getElementById("seq");
        if (shown==1) {
          seq.setAttribute("style", "visibility: hidden");
          shown = 0;
        } else {
          seq.setAttribute("style", "visibility: visible");
          shown = 1;
        }
      }
    ]]>
  </script>
  <style type="text/css">
    <![CDATA[
      .nucleotide {
        font-family: SansSerif;
      }
      .backbone {
        stroke: grey;
        fill:   none;
        stroke-width: 1.5;
      }
      .basepairs {
        stroke: red;
        fill:   none;
        stroke-width: 2.5;
      }
    ]]>
  </style>

  <rect style="stroke: white; fill: white" height="452" x="0" y="0" width="452" onclick="click(evt)" />
  <g transform="scale(1.297871,1.297871) translate(100.479973,79.480804)">
    <polyline class="backbone" id="outline" points="
      88.136,83.777
      70.014,75.736
      55.222,87.721
      40.248,88.593
      25.273,89.465
      10.279,89.902
      -4.721,89.902
      -19.721,89.902
      -34.721,89.902
      -49.721,89.902
      -64.721,89.902
      -78.645,81.238
      -92.980,89.202
      -92.980,105.601
      -78.645,113.565
      -64.721,104.902
      -49.721,104.902
      -34.721,104.902
      -19.721,104.902
      -4.721,104.902
      10.279,104.902
      17.292,108.209
      26.145,104.440
      41.120,103.568
      56.094,102.696
      63.542,110.508
      74.337,112.718
      84.669,108.281
      90.741,98.549
      105.683,97.242
      120.683,97.242
      135.683,97.242
      150.677,97.678
      165.652,98.550
      180.595,99.858
      195.493,101.599
      210.392,103.341
      223.216,113.562
      238.379,107.316
      240.283,91.028
      226.969,81.453
      212.133,88.442
      197.235,86.701
      182.336,84.959
      175.755,80.860
      166.524,83.576
      151.549,82.704
      144.741,78.994
      135.683,82.242
      120.683,82.242
      105.683,82.242
      102.243,79.485
      97.490,78.514
    " />
    <g id="pairs">
      <line class="basepairs" id="1,29" x1="88.13585" y1="83.77724" x2="90.74057" y2="98.54935" />
      <line class="basepairs" id="3,25" x1="55.22215" y1="87.72092" x2="56.09433" y2="102.69554" />
      <line class="basepairs" id="4,24" x1="40.24753" y1="88.59309" x2="41.11971" y2="103.56772" />
      <line class="basepairs" id="5,23" x1="25.27291" y1="89.46526" x2="26.14508" y2="104.43989" />
      <line class="basepairs" id="6,21" x1="10.27925" y1="89.90154" x2="10.27925" y2="104.90154" />
      <line class="basepairs" id="7,20" x1="-4.72075" y1="89.90154" x2="-4.72075" y2="104.90154" />
      <line class="basepairs" id="8,19" x1="-19.72075" y1="89.90154" x2="-19.72075" y2="104.90154" />
      <line class="basepairs" id="9,18" x1="-34.72075" y1="89.90154" x2="-34.72075" y2="104.90154" />
      <line class="basepairs" id="10,17" x1="-49.72075" y1="89.90154" x2="-49.72075" y2="104.90154" />
      <line class="basepairs" id="11,16" x1="-64.72075" y1="89.90154" x2="-64.72075" y2="104.90154" />
      <line class="basepairs" id="30,51" x1="105.68349" y1="97.24201" x2="105.68349" y2="82.24201" />
      <line class="basepairs" id="31,50" x1="120.68349" y1="97.24201" x2="120.68349" y2="82.24201" />
      <line class="basepairs" id="32,49" x1="135.68349" y1="97.24201" x2="135.68349" y2="82.24201" />
      <line class="basepairs" id="33,47" x1="150.67714" y1="97.67828" x2="151.54932" y2="82.70367" />
      <line class="basepairs" id="34,46" x1="165.65176" y1="98.55046" x2="166.52394" y2="83.57584" />
      <line class="basepairs" id="35,44" x1="180.59468" y1="99.85780" x2="182.33607" y2="84.95922" />
      <line class="basepairs" id="36,43" x1="195.49326" y1="101.59919" x2="197.23465" y2="86.70061" />
      <line class="basepairs" id="37,42" x1="210.39183" y1="103.34058" x2="212.13322" y2="88.44201" />
    </g>
    <g transform="translate(-4.6, 4)" id="seq">
      <text class="nucleotide" x="88.136" y="83.777">A</text>
      <text class="nucleotide" x="70.014" y="75.736">U</text>
      <text class="nucleotide" x="55.222" y="87.721">G</text>
      <text class="nucleotide" x="40.248" y="88.593">C</text>
      <text class="nucleotide" x="25.273" y="89.465">G</text>
      <text class="nucleotide" x="10.279" y="89.902">C</text>
      <text class="nucleotide" x="-4.721" y="89.902">G</text>
      <text class="nucleotide" x="-19.721" y="89.902">C</text>
      <text class="nucleotide" x="-34.721" y="89.902">G</text>
      <text class="nucleotide" x="-49.721" y="89.902">C</text>
      <text class="nucleotide" x="-64.721" y="89.902">G</text>
      <text class="nucleotide" x="-78.645" y="81.238">G</text>
      <text class="nucleotide" x="-92.980" y="89.202">C</text>
      <text class="nucleotide" x="-92.980" y="105.601">U</text>
      <text class="nucleotide" x="-78.645" y="113.565">G</text>
      <text class="nucleotide" x="-64.721" y="104.902">C</text>
      <text class="nucleotide" x="-49.721" y="104.902">G</text>
      <text class="nucleotide" x="-34.721" y="104.902">C</text>
      <text class="nucleotide" x="-19.721" y="104.902">G</text>
      <text class="nucleotide" x="-4.721" y="104.902">C</text>
      <text class="nucleotide" x="10.279" y="104.902">G</text>
      <text class="nucleotide" x="17.292" y="108.209">U</text>
      <text class="nucleotide" x="26.145" y="104.440">C</text>
      <text class="nucleotide" x="41.120" y="103.568">G</text>
      <text class="nucleotide" x="56.094" y="102.696">C</text>
      <text class="nucleotide" x="63.542" y="110.508">G</text>
      <text class="nucleotide" x="74.337" y="112.718">C</text>
      <text class="nucleotide" x="84.669" y="108.281">G</text>
      <text class="nucleotide" x="90.741" y="98.549">U</text>
      <text class="nucleotide" x="105.683" y="97.242">G</text>
      <text class="nucleotide" x="120.683" y="97.242">C</text>
      <text class="nucleotide" x="135.683" y="97.242">G</text>
      <text class="nucleotide" x="150.677" y="97.678">G</text>
      <text class="nucleotide" x="165.652" y="98.550">A</text>
      <text class="nucleotide" x="180.595" y="99.858">G</text>
      <text class="nucleotide" x="195.493" y="101.599">A</text>
      <text class="nucleotide" x="210.392" y="103.341">C</text>
      <text class="nucleotide" x="223.216" y="113.562">G</text>
      <text class="nucleotide" x="238.379" y="107.316">U</text>
      <text class="nucleotide" x="240.283" y="91.028">A</text>
      <text class="nucleotide" x="226.969" y="81.453">U</text>
      <text class="nucleotide" x="212.133" y="88.442">G</text>
      <text class="nucleotide" x="197.235" y="86.701">U</text>
      <text class="nucleotide" x="182.336" y="84.959">C</text>
      <text class="nucleotide" x="175.755" y="80.860">G</text>
      <text class="nucleotide" x="166.524" y="83.576">U</text>
      <text class="nucleotide" x="151.549" y="82.704">C</text>
      <text class="nucleotide" x="144.741" y="78.994">U</text>
      <text class="nucleotide" x="135.683" y="82.242">C</text>
      <text class="nucleotide" x="120.683" y="82.242">G</text>
      <text class="nucleotide" x="105.683" y="82.242">C</text>
      <text class="nucleotide" x="102.243" y="79.485">U</text>
      <text class="nucleotide" x="97.490" y="78.514">A</text>
    </g>
  </g>
</svg>
