<?xml version="1.0" encoding="UTF-8" standalone="yes" ?>
<svg xmlns="http://www.w3.org/2000/svg" height="452" width="452">
  <script type="text/ecmascript">
    <![CDATA[
      var shown = 1;
      function click() {
        var seq = document.getElementById("seq");
        if (shown==1) {
          seq.setAttribute("style", "visibility: hidden");
          shown = 0;
        } else {
          seq.setAttribute("style", "visibility: visible");
          shown = 1;
        }
      }
    ]]>
  </script>
  <style type="text/css">
    <![CDATA[
      .nucleotide {
        font-family: SansSerif;
      }
      .backbone {
        stroke: grey;
        fill:   none;
        stroke-width: 1.5;
      }
      .basepairs {
        stroke: red;
        fill:   none;
        stroke-width: 2.5;
      }
    ]]>
  </style>

  <rect style="stroke: white; fill: white" height="452" x="0" y="0" width="452" onclick="click(evt)" />
  <g transform="scale(1.055592,1.055592) translate(67.640442,137.042465)">
    <polyline class="backbone" id="outline" points="
      81.951,36.714
      75.202,30.058
      67.567,30.466
      53.809,24.490
      40.190,18.202
      26.571,11.914
      12.953,5.627
      -0.666,-0.661
      -14.284,-6.949
      -27.903,-13.236
      -36.913,-26.939
      -53.266,-25.717
      -60.140,-10.828
      -50.464,2.412
      -34.191,0.382
      -20.572,6.670
      -6.953,12.958
      6.665,19.245
      20.284,25.533
      33.902,31.820
      47.521,38.108
      52.435,43.966
      61.905,44.356
      75.664,50.332
      89.136,56.928
      102.293,64.131
      108.409,71.372
      116.050,71.661
      129.368,78.562
      142.687,85.463
      149.126,92.419
      156.772,92.359
      170.390,98.647
      184.009,104.934
      197.628,111.222
      211.246,117.510
      224.865,123.797
      238.483,130.085
      252.102,136.373
      265.720,142.660
      279.339,148.948
      292.958,155.236
      306.576,161.523
      313.326,168.179
      320.961,167.771
      330.585,181.049
      346.866,179.085
      353.055,163.898
      342.786,151.113
      326.622,153.881
      312.864,147.905
      299.245,141.617
      285.627,135.329
      272.008,129.042
      258.389,122.754
      244.771,116.466
      231.152,110.179
      217.534,103.891
      203.915,97.604
      190.297,91.316
      176.678,85.028
      163.059,78.741
      149.588,72.145
      136.269,65.244
      122.951,58.343
      109.793,51.140
      104.741,44.486
      96.037,43.610
    " />
    <g id="pairs">
      <line class="basepairs" id="1,24" x1="81.95126" y1="36.71366" x2="75.66361" y2="50.33224" />
      <line class="basepairs" id="3,23" x1="67.56673" y1="30.46558" x2="61.90545" y2="44.35622" />
      <line class="basepairs" id="4,21" x1="53.80856" y1="24.48956" x2="47.52092" y2="38.10814" />
      <line class="basepairs" id="5,20" x1="40.18999" y1="18.20192" x2="33.90234" y2="31.82049" />
      <line class="basepairs" id="6,19" x1="26.57142" y1="11.91428" x2="20.28377" y2="25.53284" />
      <line class="basepairs" id="7,18" x1="12.95285" y1="5.62662" x2="6.66520" y2="19.24519" />
      <line class="basepairs" id="8,17" x1="-0.66572" y1="-0.66103" x2="-6.95337" y2="12.95755" />
      <line class="basepairs" id="9,16" x1="-14.28429" y1="-6.94867" x2="-20.57194" y2="6.66989" />
      <line class="basepairs" id="10,15" x1="-27.90287" y1="-13.23633" x2="-34.19051" y2="0.38225" />
      <line class="basepairs" id="25,68" x1="89.13553" y1="56.92825" x2="96.03651" y2="43.60998" />
      <line class="basepairs" id="26,66" x1="102.29327" y1="64.13061" x2="109.79327" y2="51.14023" />
      <line class="basepairs" id="28,65" x1="116.05003" y1="71.66086" x2="122.95100" y2="58.34258" />
      <line class="basepairs" id="29,64" x1="129.36832" y1="78.56184" x2="136.26929" y2="65.24356" />
      <line class="basepairs" id="30,63" x1="142.68658" y1="85.46281" x2="149.58757" y2="72.14453" />
      <line class="basepairs" id="32,62" x1="156.77184" y1="92.35913" x2="163.05948" y2="78.74055" />
      <line class="basepairs" id="33,61" x1="170.39040" y1="98.64677" x2="176.67805" y2="85.02821" />
      <line class="basepairs" id="34,60" x1="184.00897" y1="104.93442" x2="190.29662" y2="91.31585" />
      <line class="basepairs" id="35,59" x1="197.62755" y1="111.22207" x2="203.91519" y2="97.60350" />
      <line class="basepairs" id="36,58" x1="211.24612" y1="117.50972" x2="217.53377" y2="103.89114" />
      <line class="basepairs" id="37,57" x1="224.86469" y1="123.79736" x2="231.15233" y2="110.17879" />
      <line class="basepairs" id="38,56" x1="238.48326" y1="130.08501" x2="244.77090" y2="116.46645" />
      <line class="basepairs" id="39,55" x1="252.10184" y1="136.37267" x2="258.38947" y2="122.75409" />
      <line class="basepairs" id="40,54" x1="265.72040" y1="142.66031" x2="272.00806" y2="129.04173" />
      <line class="basepairs" id="41,53" x1="279.33896" y1="148.94795" x2="285.62662" y2="135.32939" />
      <line class="basepairs" id="42,52" x1="292.95755" y1="155.23561" x2="299.24518" y2="141.61703" />
      <line class="basepairs" id="43,51" x1="306.57611" y1="161.52325" x2="312.86377" y2="147.90468" />
      <line class="basepairs" id="45,50" x1="320.96063" y1="167.77133" x2="326.62195" y2="153.88069" />
    </g>
    <g transform="translate(-4.6, 4)" id="seq">
      <text class="nucleotide" x="81.951" y="36.714">A</text>
      <text class="nucleotide" x="75.202" y="30.058">U</text>
      <text class="nucleotide" x="67.567" y="30.466">G</text>
      <text class="nucleotide" x="53.809" y="24.490">C</text>
      <text class="nucleotide" x="40.190" y="18.202">G</text>
      <text class="nucleotide" x="26.571" y="11.914">C</text>
      <text class="nucleotide" x="12.953" y="5.627">G</text>
      <text class="nucleotide" x="-0.666" y="-0.661">C</text>
      <text class="nucleotide" x="-14.284" y="-6.949">G</text>
      <text class="nucleotide" x="-27.903" y="-13.236">C</text>
      <text class="nucleotide" x="-36.913" y="-26.939">G</text>
      <text class="nucleotide" x="-53.266" y="-25.717">C</text>
      <text class="nucleotide" x="-60.140" y="-10.828">G</text>
      <text class="nucleotide" x="-50.464" y="2.412">C</text>
      <text class="nucleotide" x="-34.191" y="0.382">G</text>
      <text class="nucleotide" x="-20.572" y="6.670">C</text>
      <text class="nucleotide" x="-6.953" y="12.958">G</text>
      <text class="nucleotide" x="6.665" y="19.245">C</text>
      <text class="nucleotide" x="20.284" y="25.533">G</text>
      <text class="nucleotide" x="33.902" y="31.820">C</text>
      <text class="nucleotide" x="47.521" y="38.108">G</text>
      <text class="nucleotide" x="52.435" y="43.966">G</text>
      <text class="nucleotide" x="61.905" y="44.356">C</text>
      <text class="nucleotide" x="75.664" y="50.332">U</text>
      <text class="nucleotide" x="89.136" y="56.928">U</text>
      <text class="nucleotide" x="102.293" y="64.131">U</text>
      <text class="nucleotide" x="108.409" y="71.372">U</text>
      <text class="nucleotide" x="116.050" y="71.661">A</text>
      <text class="nucleotide" x="129.368" y="78.562">U</text>
      <text class="nucleotide" x="142.687" y="85.463">A</text>
      <text class="nucleotide" x="149.126" y="92.419">U</text>
      <text class="nucleotide" x="156.772" y="92.359">A</text>
      <text class="nucleotide" x="170.390" y="98.647">U</text>
      <text class="nucleotide" x="184.009" y="104.934">A</text>
      <text class="nucleotide" x="197.628" y="111.222">U</text>
      <text class="nucleotide" x="211.246" y="117.510">A</text>
      <text class="nucleotide" x="224.865" y="123.797">U</text>
      <text class="nucleotide" x="238.483" y="130.085">A</text>
      <text class="nucleotide" x="252.102" y="136.373">U</text>
      <text class="nucleotide" x="265.720" y="142.660">A</text>
      <text class="nucleotide" x="279.339" y="148.948">U</text>
      <text class="nucleotide" x="292.958" y="155.236">A</text>
      <text class="nucleotide" x="306.576" y="161.523">U</text>
      <text class="nucleotide" x="313.326" y="168.179">A</text>
      <text class="nucleotide" x="320.961" y="167.771">U</text>
      <text class="nucleotide" x="330.585" y="181.049">U</text>
      <text class="nucleotide" x="346.866" y="179.085">A</text>
      <text class="nucleotide" x="353.055" y="163.898">U</text>
      <text class="nucleotide" x="342.786" y="151.113">A</text>
      <text class="nucleotide" x="326.622" y="153.881">A</text>
      <text class="nucleotide" x="312.864" y="147.905">A</text>
      <text class="nucleotide" x="299.245" y="141.617">U</text>
      <text class="nucleotide" x="285.627" y="135.329">A</text>
      <text class="nucleotide" x="272.008" y="129.042">U</text>
      <text class="nucleotide" x="258.389" y="122.754">A</text>
      <text class="nucleotide" x="244.771" y="116.466">U</text>
      <text class="nucleotide" x="231.152" y="110.179">A</text>
      <text class="nucleotide" x="217.534" y="103.891">U</text>
      <text class="nucleotide" x="203.915" y="97.604">A</text>
      <text class="nucleotide" x="190.297" y="91.316">U</text>
      <text class="nucleotide" x="176.678" y="85.028">A</text>
      <text class="nucleotide" x="163.059" y="78.741">U</text>
      <text class="nucleotide" x="149.588" y="72.145">U</text>
      <text class="nucleotide" x="136.269" y="65.244">A</text>
      <text class="nucleotide" x="122.951" y="58.343">U</text>
      <text class="nucleotide" x="109.793" y="51.140">A</text>
      <text class="nucleotide" x="104.741" y="44.486">U</text>
      <text class="nucleotide" x="96.037" y="43.610">A</text>
    </g>
  </g>
</svg>
