<?xml version="1.0" encoding="UTF-8" standalone="yes" ?>
<svg xmlns="http://www.w3.org/2000/svg" height="452" width="452">
  <script type="text/ecmascript">
    <![CDATA[
      var shown = 1;
      function click() {
        var seq = document.getElementById("seq");
        if (shown==1) {
          seq.setAttribute("style", "visibility: hidden");
          shown = 0;
        } else {
          seq.setAttribute("style", "visibility: visible");
          shown = 1;
        }
      }
    ]]>
  </script>
  <style type="text/css">
    <![CDATA[
      .nucleotide {
        font-family: SansSerif;
      }
      .backbone {
        stroke: grey;
        fill:   none;
        stroke-width: 1.5;
      }
      .basepairs {
        stroke: red;
        fill:   none;
        stroke-width: 2.5;
      }
    ]]>
  </style>

  <rect style="stroke: white; fill: white" height="452" x="0" y="0" width="452" onclick="click(evt)" />
  <g transform="scale(4.920066,4.920066) translate(-40.031887,-42.273827)">
    <polyline class="backbone" id="outline" points="
      95.755,49.774
      94.447,64.717
      89.317,78.812
      80.713,91.099
      64.921,93.924
      57.410,108.101
      63.943,122.754
      79.507,126.642
      92.164,116.784
      92.204,100.741
      100.203,97.070
      102.307,86.312
      108.929,82.995
      111.990,75.554
      109.219,67.321
      114.522,57.728
      110.755,49.774
    " />
    <g id="pairs">
      <line class="basepairs" id="1,17" x1="95.75459" y1="49.77382" x2="110.75459" y2="49.77382" />
      <line class="basepairs" id="2,15" x1="94.44725" y1="64.71674" x2="109.21937" y2="67.32146" />
      <line class="basepairs" id="3,12" x1="89.31695" y1="78.81213" x2="102.30733" y2="86.31213" />
      <line class="basepairs" id="4,10" x1="80.71330" y1="91.09940" x2="92.20397" y2="100.74122" />
    </g>
    <g transform="translate(-4.6, 4)" id="seq">
      <text class="nucleotide" x="95.755" y="49.774">A</text>
      <text class="nucleotide" x="94.447" y="64.717">C</text>
      <text class="nucleotide" x="89.317" y="78.812">G</text>
      <text class="nucleotide" x="80.713" y="91.099">U</text>
      <text class="nucleotide" x="64.921" y="93.924">A</text>
      <text class="nucleotide" x="57.410" y="108.101">U</text>
      <text class="nucleotide" x="63.943" y="122.754">C</text>
      <text class="nucleotide" x="79.507" y="126.642">G</text>
      <text class="nucleotide" x="92.164" y="116.784">U</text>
      <text class="nucleotide" x="92.204" y="100.741">A</text>
      <text class="nucleotide" x="100.203" y="97.070">G</text>
      <text class="nucleotide" x="102.307" y="86.312">C</text>
      <text class="nucleotide" x="108.929" y="82.995">U</text>
      <text class="nucleotide" x="111.990" y="75.554">A</text>
      <text class="nucleotide" x="109.219" y="67.321">G</text>
      <text class="nucleotide" x="114.522" y="57.728">C</text>
      <text class="nucleotide" x="110.755" y="49.774">U</text>
    </g>
  </g>
</svg>
